<svg width="442" height="386" viewBox="0 0 442 386" fill="none" xmlns="http://www.w3.org/2000/svg">
<path d="M389.958 343.995L382.628 336.744C388.729 327.896 386.099 321.378 380.86 315.379C377.701 311.764 369.443 312.314 359.299 313.62L303.24 258.19L294.615 261.427C294.615 261.427 317.945 289.86 339.797 316.005C330.719 316.814 321.588 316.825 314.02 314.3C291.381 306.746 273.054 290.561 273.054 290.561C247.181 292.719 285.991 334.802 301.084 346.671C331.269 370.41 347.311 366.094 368.742 350.102C372.591 354.505 375.372 357.537 376.547 358.54L376.774 358.735C386.433 366.763 398.885 352.832 389.958 343.995Z" fill="#FB887A"/>
<path opacity="0.5" d="M389.959 343.995L382.628 336.744C388.73 327.896 386.099 321.378 380.86 315.379C377.701 311.764 369.443 312.314 359.299 313.62L303.24 258.19L294.616 261.427C294.616 261.427 317.945 289.859 339.797 316.005C330.72 316.814 321.589 316.825 314.021 314.3C291.382 306.746 273.055 290.561 273.055 290.561C247.182 292.719 285.172 335.934 301.084 346.671C336.66 370.647 347.311 366.094 368.743 350.102C372.591 354.505 375.373 357.537 376.548 358.54L376.774 358.734C386.433 366.763 398.885 352.832 389.959 343.995Z" fill="#F9F8F9"/>
<path d="M332.563 256.495L172.418 301.61C170.69 302.036 168.871 301.899 167.225 301.22C165.579 300.541 164.192 299.355 163.266 297.833L41.823 79.0689C41.4112 78.4189 41.1631 77.6785 41.0999 76.9113C41.0368 76.1442 41.1605 75.3731 41.4605 74.6644C41.7605 73.9556 42.2278 73.3302 42.8223 72.842C43.4169 72.3537 44.1208 72.0171 44.8739 71.861L205.019 26.7463C206.744 26.3187 208.562 26.4534 210.206 27.1307C211.85 27.8079 213.235 28.9925 214.16 30.5121L335.581 249.277C335.993 249.925 336.242 250.664 336.307 251.43C336.372 252.196 336.251 252.966 335.954 253.675C335.658 254.383 335.195 255.01 334.604 255.501C334.014 255.992 333.313 256.333 332.563 256.495Z" fill="#181925" stroke="#181925" stroke-width="1.41667" stroke-miterlimit="10"/>
<path d="M170.164 292.017C170.164 292.017 262.704 269.983 324.994 248.392L170.164 292.017Z" fill="#BC1C0A"/>
<path d="M324.995 248.392L170.165 292.017L50.4043 76.2958L205.234 32.681L324.995 248.392Z" fill="#F9F8F9" stroke="#181925" stroke-width="1.41667" stroke-miterlimit="10"/>
<path d="M159.373 78.369L171.393 74.9795" stroke="#181925" stroke-width="1.41667" stroke-miterlimit="10"/>
<path d="M75.9968 101.858L150.07 80.9897" stroke="#181925" stroke-width="1.41667" stroke-miterlimit="10"/>
<path d="M146.189 91.7693L176.051 83.3528" stroke="#181925" stroke-width="1.41667" stroke-miterlimit="10"/>
<path d="M100.425 104.664L138.038 94.0676" stroke="#181925" stroke-width="1.41667" stroke-miterlimit="10"/>
<path d="M80.6441 110.233L93.4405 106.627" stroke="#181925" stroke-width="1.41667" stroke-miterlimit="10"/>
<path d="M122.526 108.127L180.708 91.7368" stroke="#181925" stroke-width="1.41667" stroke-miterlimit="10"/>
<path d="M85.3001 118.616L109.729 111.732" stroke="#181925" stroke-width="1.41667" stroke-miterlimit="10"/>
<path d="M213.287 72.0552C211.755 69.5496 209.469 67.5954 206.756 66.4745C204.044 65.3536 201.045 65.1238 198.194 65.8184C192.621 67.3938 190.367 72.7242 193.149 77.7417C194.677 80.251 196.963 82.2082 199.677 83.3296C202.39 84.451 205.39 84.6783 208.242 83.9786C213.761 82.414 216.068 77.0727 213.287 72.0552Z" fill="#F9F8F9" stroke="#181925" stroke-width="1.41667" stroke-miterlimit="10"/>
<path d="M108.759 135.827L96.7386 139.216" stroke="#181925" stroke-width="1.41667" stroke-miterlimit="10"/>
<path d="M192.136 112.336L118.063 133.204" stroke="#181925" stroke-width="1.41667" stroke-miterlimit="10"/>
<path d="M131.247 139.182L101.385 147.599" stroke="#181925" stroke-width="1.41667" stroke-miterlimit="10"/>
<path d="M177.011 126.288L139.398 136.884" stroke="#181925" stroke-width="1.41667" stroke-miterlimit="10"/>
<path d="M196.793 120.72L183.996 124.325" stroke="#181925" stroke-width="1.41667" stroke-miterlimit="10"/>
<path d="M164.215 139.581L106.043 155.972" stroke="#181925" stroke-width="1.41667" stroke-miterlimit="10"/>
<path d="M201.449 129.093L177.01 135.978" stroke="#181925" stroke-width="1.41667" stroke-miterlimit="10"/>
<path d="M234.029 109.422C232.501 106.913 230.214 104.956 227.501 103.835C224.787 102.713 221.787 102.486 218.936 103.186C213.362 104.75 211.109 110.091 213.891 115.055C215.417 117.566 217.703 119.524 220.417 120.645C223.131 121.767 226.132 121.993 228.983 121.292C234.546 119.77 236.81 114.429 234.029 109.422Z" fill="#F9F8F9" stroke="#181925" stroke-width="1.41667" stroke-miterlimit="10"/>
<path d="M200.857 153.082L212.877 149.692" stroke="#181925" stroke-width="1.41667" stroke-miterlimit="10"/>
<path d="M117.481 176.571L191.554 155.702" stroke="#181925" stroke-width="1.41667" stroke-miterlimit="10"/>
<path d="M187.673 166.493L217.535 158.076" stroke="#181925" stroke-width="1.41667" stroke-miterlimit="10"/>
<path d="M141.909 179.387L179.522 168.78" stroke="#181925" stroke-width="1.41667" stroke-miterlimit="10"/>
<path d="M122.127 184.957L134.923 181.351" stroke="#181925" stroke-width="1.41667" stroke-miterlimit="10"/>
<path d="M164.009 182.84L222.181 166.46" stroke="#181925" stroke-width="1.41667" stroke-miterlimit="10"/>
<path d="M126.784 193.339L151.213 186.455" stroke="#181925" stroke-width="1.41667" stroke-miterlimit="10"/>
<path d="M255.438 153.845C257.285 149.142 253.963 143.433 248.017 141.093C242.071 138.754 235.754 140.67 233.907 145.374C232.06 150.077 235.382 155.786 241.328 158.125C247.274 160.465 253.591 158.548 255.438 153.845Z" fill="#F9F8F9" stroke="#181925" stroke-width="1.41667" stroke-miterlimit="10"/>
<path d="M150.242 210.55L138.222 213.939" stroke="#181925" stroke-width="1.41667" stroke-miterlimit="10"/>
<path d="M233.619 187.059L159.546 207.928" stroke="#181925" stroke-width="1.41667" stroke-miterlimit="10"/>
<path d="M172.731 213.906L142.869 222.311" stroke="#181925" stroke-width="1.41667" stroke-miterlimit="10"/>
<path d="M218.493 201.011L180.88 211.607" stroke="#181925" stroke-width="1.41667" stroke-miterlimit="10"/>
<path d="M238.276 195.433L225.479 199.038" stroke="#181925" stroke-width="1.41667" stroke-miterlimit="10"/>
<path d="M205.697 214.305L147.525 230.696" stroke="#181925" stroke-width="1.41667" stroke-miterlimit="10"/>
<path d="M242.923 203.817L218.494 210.701" stroke="#181925" stroke-width="1.41667" stroke-miterlimit="10"/>
<path d="M275.501 184.135C273.972 181.627 271.686 179.671 268.973 178.549C266.259 177.428 263.26 177.2 260.409 177.898C254.835 179.473 252.582 184.804 255.363 189.821C256.891 192.331 259.177 194.288 261.891 195.409C264.605 196.531 267.605 196.758 270.456 196.058C276.03 194.526 278.293 189.131 275.501 184.135Z" fill="#F9F8F9" stroke="#181925" stroke-width="1.41667" stroke-miterlimit="10"/>
<path d="M242.34 227.805L254.361 224.416" stroke="#181925" stroke-width="1.41667" stroke-miterlimit="10"/>
<path d="M158.963 251.295L233.036 230.426" stroke="#181925" stroke-width="1.41667" stroke-miterlimit="10"/>
<path d="M229.155 241.205L259.017 232.8" stroke="#181925" stroke-width="1.41667" stroke-miterlimit="10"/>
<path d="M183.392 254.1L221.005 243.504" stroke="#181925" stroke-width="1.41667" stroke-miterlimit="10"/>
<path d="M163.61 259.68L176.407 256.064" stroke="#181925" stroke-width="1.41667" stroke-miterlimit="10"/>
<path d="M205.492 257.564L263.664 241.173" stroke="#181925" stroke-width="1.41667" stroke-miterlimit="10"/>
<path d="M168.268 268.052L192.696 261.168" stroke="#181925" stroke-width="1.41667" stroke-miterlimit="10"/>
<path d="M296.918 228.561C298.765 223.858 295.443 218.149 289.497 215.81C283.551 213.47 277.234 215.386 275.387 220.09C273.54 224.793 276.862 230.502 282.808 232.841C288.754 235.181 295.071 233.264 296.918 228.561Z" fill="#F9F8F9" stroke="#181925" stroke-width="1.41667" stroke-miterlimit="10"/>
<path d="M152.819 36.3389L132.466 42.0686C130.924 42.1333 129.231 42.0146 128.757 41.2269C127.679 39.1983 129.059 37.2992 129.49 35.508C129.989 33.4434 129.668 31.2656 128.595 29.433C127.024 26.8551 124.674 24.8451 121.884 23.6946C119.095 22.5441 116.012 22.3128 113.082 23.0343C107.369 24.6529 105.062 30.1236 107.908 35.2598C109.304 37.6323 111.397 39.5162 113.902 40.655C113.902 40.655 118.031 42.5002 118.861 43.9893C119.303 44.777 118.149 45.7049 116.974 46.4063L95.0357 52.5892C94.2085 52.7633 93.4357 53.1351 92.7831 53.6729C92.1306 54.2106 91.6178 54.8985 91.2884 55.6776C90.959 56.4568 90.8229 57.3041 90.8916 58.1474C90.9603 58.9906 91.2318 59.8047 91.6829 60.5201L94.6476 65.8506L165.874 45.7913L162.91 40.45C161.885 38.778 160.353 37.4773 158.538 36.7378C156.723 35.9982 154.719 35.8585 152.819 36.3389ZM116.564 29.3683C117.503 29.1356 118.491 29.2089 119.385 29.5777C120.279 29.9465 121.032 30.5914 121.534 31.4184C121.757 31.7712 121.892 32.1729 121.925 32.5891C121.959 33.0052 121.892 33.4234 121.728 33.8076C121.565 34.1918 121.311 34.5306 120.988 34.7948C120.665 35.0591 120.283 35.2408 119.874 35.3246C118.938 35.5575 117.952 35.4853 117.06 35.1185C116.169 34.7517 115.417 34.1094 114.915 33.2852C114.692 32.9323 114.558 32.5307 114.523 32.1146C114.489 31.6985 114.556 31.2803 114.718 30.8956C114.88 30.5109 115.132 30.1711 115.454 29.9052C115.775 29.6392 116.156 29.455 116.564 29.3683Z" fill="#FB887A" stroke="#181925" stroke-width="1.41667" stroke-miterlimit="10"/>
<path d="M196.739 72.6809L205.525 78.8206L214.581 58.5023" stroke="#FB887A" stroke-width="8.5" stroke-linecap="round" stroke-linejoin="round"/>
<path d="M217.157 109.465L225.943 115.594L234.999 95.2869" stroke="#FB887A" stroke-width="8.5" stroke-linecap="round" stroke-linejoin="round"/>
<path d="M361.261 104.437C361.261 104.437 363.6 99.452 362.134 95.6322C360.668 91.8124 333.684 85.6511 333.684 85.6511C333.684 85.6511 327.528 85.6511 327.819 89.1796C328.11 92.708 350.405 106.207 352.162 107.372C353.919 108.538 360.668 111.192 361.261 104.437Z" fill="#F9F8F9" stroke="#181925" stroke-width="1.41667" stroke-linecap="round" stroke-linejoin="round"/>
<path d="M335.916 80.7198C334.255 80.1041 332.625 79.4054 331.033 78.6264C328.704 77.4611 331.259 82.8239 332.197 83.0505C333.135 83.2771 335.431 83.7519 335.431 83.7519L335.916 80.7198Z" fill="#F9F8F9" stroke="#181925" stroke-width="1.41667" stroke-linecap="round" stroke-linejoin="round"/>
<path d="M255.385 132.913L241.898 149.347L243.062 151.699L262.133 147.049L396.361 68.8399C397.702 68.0549 398.871 67.0094 399.801 65.7648C400.731 64.5203 401.403 63.102 401.777 61.5935C402.15 60.0851 402.219 58.517 401.977 56.9817C401.736 55.4464 401.19 53.975 400.372 52.6543C399.554 51.3461 398.485 50.2139 397.226 49.3235C395.967 48.4332 394.543 47.8024 393.038 47.468C391.533 47.1336 389.977 47.1022 388.46 47.3757C386.942 47.6492 385.495 48.2221 384.201 49.061L255.385 132.913Z" fill="#FB887A" stroke="#181925" stroke-width="1.41667" stroke-linecap="round" stroke-linejoin="round"/>
<path d="M322.828 102.452L318.451 105.28" stroke="#181925" stroke-width="1.41667" stroke-linecap="round" stroke-linejoin="round"/>
<path d="M360.505 78.1948L328.174 99.0203" stroke="#181925" stroke-width="1.41667" stroke-linecap="round" stroke-linejoin="round"/>
<path d="M243.149 149.001C243.149 149.001 239.796 150.405 240.313 151.819C240.831 153.233 245.639 149.811 245.639 149.811L243.149 149.001Z" fill="#FB887A" stroke="#181925" stroke-width="1.41667" stroke-linecap="round" stroke-linejoin="round"/>
<path d="M241.898 149.347L243.062 151.699L262.133 147.048C251.568 142.937 255.385 132.956 255.385 132.956L241.898 149.347Z" fill="#F9F8F9" stroke="#181925" stroke-width="1.41667" stroke-linecap="round" stroke-linejoin="round"/>
<path d="M400.373 52.5783C399.555 51.2702 398.486 50.138 397.227 49.2476C395.968 48.3572 394.544 47.7265 393.039 47.3921C391.535 47.0577 389.978 47.0263 388.461 47.2998C386.944 47.5733 385.496 48.1462 384.202 48.9851L360.787 64.2427C360.156 65.8513 359.834 67.5646 359.838 69.2926C359.772 72.7571 361.078 76.107 363.472 78.6102C365.866 81.1134 369.152 82.5662 372.613 82.6512L396.406 68.7963C397.747 68.0078 398.916 66.9582 399.845 65.7095C400.774 64.4607 401.443 63.0383 401.813 61.5262C402.183 60.0142 402.246 58.4432 401.998 56.9063C401.751 55.3694 401.198 53.8977 400.373 52.5783Z" fill="#F9F8F9" stroke="#181925" stroke-width="1.41667" stroke-linecap="round" stroke-linejoin="round"/>
<path d="M400.372 52.5783C399.554 51.2702 398.485 50.138 397.226 49.2476C395.967 48.3572 394.543 47.7265 393.038 47.3921C391.533 47.0577 389.977 47.0263 388.46 47.2998C386.943 47.5733 385.495 48.1462 384.201 48.9851L366.413 60.5848C365.553 62.3606 365.107 64.3087 365.109 66.2821C365.086 67.9617 365.394 69.6293 366.016 71.1895C366.638 72.7496 367.561 74.1718 368.733 75.3745C369.904 76.5772 371.301 77.5368 372.844 78.1985C374.386 78.8602 376.044 79.2109 377.722 79.2306C378.013 79.2306 378.315 79.2306 378.595 79.2306L396.405 68.861C397.755 68.0727 398.932 67.0202 399.866 65.7663C400.801 64.5124 401.473 63.0829 401.844 61.5631C402.214 60.0433 402.275 58.4645 402.022 56.9208C401.769 55.377 401.208 53.9002 400.372 52.5783Z" fill="#181925" stroke="#181925" stroke-width="1.41667" stroke-linecap="round" stroke-linejoin="round"/>
<path d="M321.029 86.0826C321.029 86.0826 318.42 86.0826 318.42 87.2696C318.42 88.4565 317.73 92.6648 319.239 92.5461C320.748 92.4274 320.619 89.7838 320.748 88.8558C320.878 87.9278 321.029 86.0826 321.029 86.0826Z" fill="#F9F8F9" stroke="#181925" stroke-width="1.41667" stroke-linecap="round" stroke-linejoin="round"/>
<path d="M323.873 81.7881C323.873 81.7881 321.545 81.0651 321.006 82.5002C320.467 83.9353 319.928 90.7549 321.545 90.5714C323.162 90.388 323.517 84.3022 323.873 81.7881Z" fill="#F9F8F9" stroke="#181925" stroke-width="1.41667" stroke-linecap="round" stroke-linejoin="round"/>
<path d="M327.463 82.1442C327.463 82.1442 324.768 79.8134 323.873 81.7881C322.978 83.7627 322.795 89.3414 323.873 89.3414C324.951 89.3414 326.568 87.0106 326.924 85.7589C327.192 84.5689 327.372 83.3607 327.463 82.1442Z" fill="#F9F8F9" stroke="#181925" stroke-width="1.41667" stroke-linecap="round" stroke-linejoin="round"/>
<path d="M331.268 83.2231C331.268 83.2231 327.861 80.3528 327.322 80.8924C326.783 81.4319 324.627 86.9566 326.244 88.068C327.861 89.1794 329.909 84.2158 329.909 84.2158L331.268 83.2231Z" fill="#F9F8F9" stroke="#181925" stroke-width="1.41667" stroke-linecap="round" stroke-linejoin="round"/>
<path d="M282.035 100.251C282.035 100.251 282.412 106.002 283.943 107.351C284.868 108.153 285.703 109.054 286.433 110.037C286.645 111.5 286.774 112.974 286.821 114.451C286.821 116.177 287.975 115.983 288.977 115.983C289.98 115.983 291.662 119.22 292.621 120.774C294.449 123.034 296.634 124.981 299.089 126.536C300.814 127.496 303.693 123.849 303.693 123.849L305.029 127.691L318.645 118.864L311.94 105.808C311.544 101.282 310.168 96.8963 307.908 92.9563C304.07 86.0504 298.895 82.1659 290.271 84.7016C281.647 87.2373 282.035 100.251 282.035 100.251Z" fill="#F9F8F9" stroke="#181925" stroke-width="1.41667" stroke-linecap="round" stroke-linejoin="round"/>
<path d="M297.785 74.6772C294.569 74.818 291.395 75.455 288.373 76.5656C283.339 78.346 282.099 85.3598 277.711 87.8739C273.324 90.3881 275.2 85.7158 273 86.9244C270.801 88.1329 268.613 99.1715 273.313 102.311C278.013 105.451 284.924 101.373 284.924 101.373C284.924 101.373 284.298 103.531 286.174 104.2C287.309 104.577 288.465 104.89 289.635 105.139C289.635 105.139 289.311 108.915 292.136 108.591C294.96 108.268 292.459 103.887 292.459 103.887C292.459 103.887 297.796 114.246 301.881 115.508C305.967 116.771 311.918 111.106 313.481 108.591C315.044 106.077 313.794 88.1868 310.344 81.281C306.894 74.3751 297.785 74.6772 297.785 74.6772Z" fill="#181925" stroke="#181925" stroke-width="1.41667" stroke-linecap="round" stroke-linejoin="round"/>
<path d="M292.578 110.609C292.578 110.609 290.659 103.315 293.721 104.275C296.782 105.236 298.518 111.764 298.324 112.53C298.13 113.296 296.599 113.674 295.834 113.49" fill="#F9F8F9"/>
<path d="M292.578 110.609C292.578 110.609 290.659 103.315 293.721 104.275C296.782 105.236 298.518 111.764 298.324 112.53C298.13 113.296 296.599 113.674 295.834 113.49" stroke="#181925" stroke-width="1.41667" stroke-linecap="round" stroke-linejoin="round"/>
<path d="M314.732 113.253C311.157 115.263 307.741 117.543 304.512 120.072C301.277 122.953 298.378 131.586 298.378 131.586C298.378 131.586 318.127 118.152 321.577 116.242C325.027 114.332 325.792 113.361 325.792 113.361C325.792 113.361 318.569 112.292 314.732 113.253Z" fill="#F9F8F9" stroke="#181925" stroke-width="1.41667" stroke-linecap="round" stroke-linejoin="round"/>
<path d="M341.315 101.502C342.15 100.023 343.285 98.7367 344.649 97.7254C346.012 96.7142 347.572 96.001 349.228 95.6323C354.802 94.4561 362.165 98.2759 363.017 104.437C363.868 110.599 359.2 113.544 356.268 113.544C353.336 113.544 350.695 109.433 350.695 109.433C350.695 109.433 341.315 105.905 341.315 101.502Z" fill="#F9F8F9" stroke="#181925" stroke-width="1.41667" stroke-linecap="round" stroke-linejoin="round"/>
<path d="M262.716 166.968L272.105 142.009C271.056 142.949 269.698 143.471 268.289 143.477C265.939 143.477 260.376 142.603 261.821 141.718C263.265 140.833 268.85 137.024 268.85 137.024C268.85 137.024 264.753 137.909 263.578 137.024C262.403 136.139 261.821 134.963 262.694 134.672C263.567 134.38 265.335 134.672 268.559 133.496C271.782 132.32 273.248 131.154 275.889 131.154C278.531 131.154 280.881 135.848 280.881 137.315C280.881 138.783 278.822 166.665 278.822 167.842C278.822 169.018 278.822 170.194 271.2 171.079C263.578 171.963 262.425 170.194 262.716 166.968Z" fill="#F9F8F9" stroke="#181925" stroke-width="1.41667" stroke-linecap="round" stroke-linejoin="round"/>
<path d="M272.105 142.009L273.496 136.528" stroke="#181925" stroke-width="1.41667" stroke-linecap="round" stroke-linejoin="round"/>
<path d="M271.803 160.795C271.803 160.795 262.424 163.439 260.667 167.55C258.91 171.661 259.201 177.823 262.716 181.351C266.23 184.88 267.707 185.754 271.512 184.286C275.318 182.819 276.213 180.466 276.504 178.114C276.795 175.762 278.843 167.842 271.803 160.795Z" fill="#F9F8F9" stroke="#181925" stroke-width="1.41667" stroke-linecap="round" stroke-linejoin="round"/>
<path d="M267.998 285.262C267.998 285.262 259.783 281.443 256.56 282.91C253.336 284.378 253.325 285.845 257.433 292.309C261.54 298.772 272.978 306.692 276.838 304.923C280.697 303.153 277.129 291.424 277.129 291.424L267.998 285.262Z" fill="#F9F8F9" stroke="#181925" stroke-width="1.41667" stroke-linecap="round" stroke-linejoin="round"/>
<path d="M262.133 294.359C259.284 291.201 256.889 287.66 255.018 283.838C253.509 285.176 254.156 287.14 257.433 292.309C261.54 298.783 272.978 306.692 276.838 304.923C277.328 304.608 277.732 304.176 278.012 303.665C278.293 303.154 278.441 302.581 278.444 301.999C273.054 304.275 267.48 300.272 262.133 294.359Z" fill="#F9F8F9" stroke="#181925" stroke-width="1.41667" stroke-linecap="round" stroke-linejoin="round"/>
<path d="M310.225 195.432L310.516 204.248C310.516 204.248 292.631 210.992 283.834 217.197C275.037 223.401 269.173 228.052 268.289 233.922C267.405 239.792 267.998 285.295 267.998 285.295C267.998 285.295 265.356 285.878 266.24 287.636C267.124 289.395 268.871 295.859 271.221 296.441C273.571 297.024 276.503 298.211 277.085 296.744C277.668 295.276 279.436 286.471 280.611 283.536C281.786 280.601 283.834 266.822 285.591 257.11C286.621 251.689 287.208 246.193 287.349 240.677C293.541 239.813 299.633 238.338 305.535 236.274C315.798 232.746 330.751 226.293 330.751 226.293C330.751 226.293 342.782 256.506 345.423 262.398C348.064 268.289 358.36 281.475 360.376 285.295C362.392 289.115 375.328 305.549 375.328 305.549C375.328 305.549 380.32 301.146 383.543 301.146H387.942C387.942 301.146 382.659 286.471 378.239 277.655C373.819 268.84 364.753 254.467 364.753 254.467C364.753 254.467 356.549 203.115 356.247 199.576C355.675 192.8 351.342 182.57 351.342 182.57C351.342 182.57 337.208 179.581 310.225 195.432Z" fill="#181925" stroke="#181925" stroke-width="1.41667" stroke-linecap="round" stroke-linejoin="round"/>
<path d="M375.329 305.516C374.576 306.746 373.892 308.018 373.281 309.325C372.99 310.21 366.532 311.095 367.416 314.03C368.3 316.965 375.038 319.306 378.262 319.608C381.485 319.91 387.964 315.497 389.118 314.321C389.808 313.63 390.842 309.066 390.293 305.516C389.935 303.858 389.121 302.333 387.942 301.114C387.942 301.114 382.369 292.6 375.329 305.516Z" fill="#F9F8F9" stroke="#181925" stroke-width="1.41667" stroke-linecap="round" stroke-linejoin="round"/>
<path d="M390.292 305.516C389.992 304.026 389.304 302.641 388.297 301.502C387.083 301.512 385.884 301.769 384.772 302.256C383.66 302.744 382.659 303.453 381.829 304.34C378.897 307.858 380.363 315.789 376.837 316.965C374.218 317.839 369.636 314.634 367.48 312.951C367.36 313.301 367.36 313.68 367.48 314.03C368.353 316.965 375.102 319.306 378.325 319.609C381.549 319.911 388.028 315.497 389.181 314.321C389.806 313.631 390.841 309.066 390.292 305.516Z" fill="#F9F8F9" stroke="#181925" stroke-width="1.41667" stroke-linecap="round" stroke-linejoin="round"/>
<path d="M382.66 307.566C381.496 312.854 382.962 316.371 378.261 319.608C381.496 319.9 387.964 315.497 389.117 314.321C389.807 313.63 390.842 309.066 390.292 305.516C390.166 304.78 389.923 304.07 389.57 303.412H389.117C389.117 303.412 383.835 302.29 382.66 307.566Z" fill="#181925" stroke="#181925" stroke-width="1.41667" stroke-linecap="round" stroke-linejoin="round"/>
<path d="M333.683 225.667L350.986 217.164" stroke="#F9F8F9" stroke-width="1.41667" stroke-linecap="round" stroke-linejoin="round"/>
<path d="M341.608 221.859L356.561 219.797" stroke="#F9F8F9" stroke-width="1.41667" stroke-linecap="round" stroke-linejoin="round"/>
<path d="M347.44 99.4519C342.459 100.035 329.555 108.84 328.671 109.724C327.787 110.609 324.272 112.659 322.806 113.836C322.806 113.836 292.621 132.622 289.958 134.337C287.295 136.053 282.045 139.625 282.336 140.812C282.627 141.998 266.791 167.788 266.791 167.788C266.791 167.788 262.101 173.96 266.5 179.527C270.898 185.095 275.006 181.297 277.054 180.121C279.102 178.945 295.241 163.676 295.241 163.676L310.118 199.285C310.118 199.285 330.719 185.462 352.722 186.336L338.05 128.802C338.05 128.802 358.296 113.544 358.878 108.3C359.46 103.056 352.453 98.8585 347.44 99.4519Z" fill="#F9F8F9"/>
<path d="M347.44 99.452C345.445 99.6894 342.179 101.243 338.912 103.078C339.657 102.934 340.427 103.013 341.127 103.305C341.826 103.596 342.425 104.088 342.847 104.718C345.273 107.836 340.077 117.882 340.077 117.882C340.077 117.882 337.921 104.006 338.007 108.171C338.093 112.336 336.929 125.144 336.929 125.144C336.929 125.144 330.008 116.835 330.353 118.907C330.698 120.979 335.193 140.38 337.964 147.653C340.734 154.925 335.883 175.352 333.123 181.232C330.363 187.113 332.045 156.307 328.962 163.968C325.879 171.629 315.476 192.703 313.05 194.785C310.624 196.868 313.826 166.547 314.689 162.597C313.611 165.899 306.485 186.822 306.485 186.822L296.782 161.885C296.782 161.885 280.18 148.386 281.905 150.804C283.63 153.221 287.791 160.849 287.791 160.849C287.791 160.849 277.755 158.767 279.49 159.468C281.226 160.17 288.826 163.968 288.826 163.968C288.826 163.968 273.259 175.05 268.764 176.431C267.554 176.786 266.312 177.014 265.055 177.111C265.379 178.015 265.849 178.861 266.446 179.614C270.844 185.193 274.952 181.384 277 180.207C279.048 179.031 295.187 163.763 295.187 163.763L310.064 199.371C310.064 199.371 330.665 185.549 352.668 186.423L337.996 128.888C337.996 128.888 358.242 113.631 358.824 108.386C359.406 103.142 352.453 98.8586 347.44 99.452Z" fill="#FB887A"/>
<path opacity="0.5" d="M347.44 99.452C345.445 99.6894 342.179 101.243 338.912 103.078C339.657 102.934 340.427 103.013 341.127 103.305C341.826 103.596 342.425 104.088 342.847 104.718C345.273 107.836 340.077 117.882 340.077 117.882C340.077 117.882 337.921 104.006 338.007 108.171C338.093 112.336 336.929 125.144 336.929 125.144C336.929 125.144 330.008 116.835 330.353 118.907C330.698 120.979 335.193 140.38 337.964 147.653C340.734 154.925 335.883 175.352 333.123 181.232C330.363 187.113 332.045 156.307 328.962 163.968C325.879 171.629 315.476 192.703 313.05 194.785C310.624 196.868 313.826 166.547 314.689 162.597C313.611 165.899 306.485 186.822 306.485 186.822L296.782 161.885C296.782 161.885 280.18 148.386 281.905 150.804C283.63 153.221 287.791 160.849 287.791 160.849C287.791 160.849 277.755 158.767 279.49 159.468C281.226 160.17 288.826 163.968 288.826 163.968C288.826 163.968 273.259 175.05 268.764 176.431C267.554 176.786 266.312 177.014 265.055 177.111C265.379 178.015 265.849 178.861 266.446 179.614C270.844 185.193 274.952 181.384 277 180.207C279.048 179.031 295.187 163.763 295.187 163.763L310.064 199.371C310.064 199.371 330.665 185.549 352.668 186.423L337.996 128.888C337.996 128.888 358.242 113.631 358.824 108.386C359.406 103.142 352.453 98.8586 347.44 99.452Z" fill="#F9F8F9"/>
<path d="M347.44 99.4519C342.459 100.035 329.555 108.84 328.671 109.724C327.787 110.609 324.272 112.659 322.806 113.836C322.806 113.836 292.621 132.622 289.958 134.337C287.295 136.053 282.045 139.625 282.336 140.812C282.627 141.998 266.791 167.788 266.791 167.788C266.791 167.788 262.101 173.96 266.5 179.527C270.898 185.095 275.006 181.297 277.054 180.121C279.102 178.945 295.241 163.676 295.241 163.676L310.118 199.285C310.118 199.285 330.719 185.462 352.722 186.336L338.05 128.802C338.05 128.802 358.296 113.544 358.878 108.3C359.46 103.056 352.453 98.8585 347.44 99.4519Z" stroke="#181925" stroke-width="1.41667" stroke-linecap="round" stroke-linejoin="round"/>
<path d="M310.15 199.285C309.292 191.209 309.71 183.048 311.39 175.103L310.15 199.285Z" fill="#F9F8F9"/>
<path d="M310.15 199.285C309.292 191.209 309.71 183.048 311.39 175.103" stroke="#181925" stroke-width="1.41667" stroke-linecap="round" stroke-linejoin="round"/>
<path d="M307.369 181.297C307.369 181.297 307.369 176.334 312.942 160.795L307.369 181.297Z" fill="#F9F8F9"/>
<path d="M307.369 181.297C307.369 181.297 307.369 176.334 312.942 160.795" stroke="#181925" stroke-width="1.41667" stroke-linecap="round" stroke-linejoin="round"/>
<path d="M283.835 150.825L295.273 163.73L283.544 155.217" fill="#F9F8F9"/>
<path d="M283.835 150.825L295.273 163.73L283.544 155.217" stroke="#181925" stroke-width="1.41667" stroke-linecap="round" stroke-linejoin="round"/>
<path d="M338.083 112.368V128.802L341.899 107.674" fill="#F9F8F9"/>
<path d="M338.083 112.368V128.802L341.899 107.674" stroke="#181925" stroke-width="1.41667" stroke-linecap="round" stroke-linejoin="round"/>
<path d="M314.859 162.155C314.816 162.273 314.784 162.396 314.762 162.52C314.891 162.155 314.934 162.015 314.859 162.155Z" fill="#181925"/>
</svg>
