<svg width="442" height="386" viewBox="0 0 442 386" fill="none" xmlns="http://www.w3.org/2000/svg">
<path d="M72.6866 24.9556C71.4639 23.8643 69.971 23.1199 68.363 22.7997C66.755 22.4795 65.0905 22.5952 63.5424 23.1347C58.0639 24.9556 52.8144 32.8661 54.1392 39.5627C55.0656 44.1996 59.3688 51.0355 60.6736 53.6425C61.9785 56.2495 60.1457 60.6575 56.0019 69.8118C51.8582 78.9661 50.2545 87.5533 62.2674 95.1156C74.2803 102.678 87.877 90.6777 94.8497 82.0707C101.822 73.4636 89.6202 53.6425 88.5743 45.2543C87.5284 36.8662 85.7354 20.7864 72.6866 24.9556Z" fill="#181925"/>
<path d="M100.926 82.6477C97.9373 85.6352 94.3256 87.9277 90.3485 89.362C86.3715 90.7964 82.1268 91.3373 77.9166 90.9463L75.0378 102.936L80.5164 130.31L116.286 111.792L108.188 90.8965L100.926 82.6477Z" fill="#FB887A" stroke="#181925" stroke-width="1.41667" stroke-linecap="round" stroke-linejoin="round"/>
<path opacity="0.3" d="M100.926 82.6477C97.9373 85.6352 94.3256 87.9277 90.3485 89.362C86.3715 90.7964 82.1268 91.3373 77.9166 90.9463L75.0378 102.936L80.5164 130.31L116.286 111.792L108.188 90.8965L100.926 82.6477Z" fill="#181925"/>
<path d="M100.927 82.6477L95.4482 46.3885L79.2118 49.712L71.1136 54.926C71.1136 54.926 61.4514 62.4982 61.4514 63.2743C61.4514 64.0504 77.7974 91.3741 77.7974 91.3741C82.0501 91.6255 86.3081 90.9782 90.2936 89.4746C94.279 87.9709 97.9022 85.6447 100.927 82.6477Z" fill="#F9F8F9"/>
<path d="M100.927 82.6477L95.4482 46.3885L79.2118 49.712L71.1136 54.926C71.1136 54.926 61.4514 62.4982 61.4514 63.2743C61.4514 64.0504 77.7974 91.3741 77.7974 91.3741C82.0501 91.6255 86.3081 90.9782 90.2936 89.4746C94.279 87.9709 97.9022 85.6447 100.927 82.6477Z" stroke="#181925" stroke-width="1.41667" stroke-linecap="round" stroke-linejoin="round"/>
<path opacity="0.5" d="M79.1422 81.0955C79.1422 81.0955 90.5874 72.6178 89.5315 75.1253C88.4756 77.6328 80.5666 83.8915 78.4449 84.0806C76.3232 84.2696 79.1422 81.0955 79.1422 81.0955Z" fill="#FB887A"/>
<path d="M79.4902 64.9958L79.9385 65.4635L82.7275 68.4088L83.4447 79.7223L86.8613 79.185L84.1619 68.5879L88.485 77.5631L92.0809 73.971L84.3512 66.9659L84.1619 61.4037L80.2074 59.4236" fill="#181925"/>
<path d="M73.2049 51.5629C73.2049 51.5629 69.8082 53.1251 69.8082 56.2495C69.8082 59.3739 73.4838 66.8068 75.7848 68.369C78.0858 69.9312 82.0303 62.7769 82.0303 62.7769C82.0303 62.7769 88.0069 65.6426 89.6007 63.0356C91.1944 60.4286 85.945 51.8216 82.5583 49.4733C79.1715 47.125 73.2049 51.5629 73.2049 51.5629Z" fill="#F9F8F9" stroke="#181925" stroke-width="1.41667" stroke-linecap="round" stroke-linejoin="round"/>
<path d="M70.3368 48.4286C71.2707 50.8122 72.0558 53.2514 72.6876 55.7321C73.2056 58.3391 80.2579 62.777 81.0349 63.0357C81.8118 63.2944 82.3398 54.6873 82.3398 54.6873L80.2579 44.5181L70.3368 48.4286Z" fill="#F9F8F9"/>
<g style="mix-blend-mode:multiply" opacity="0.5">
<path d="M80.4769 45.6026C80.0387 45.4799 79.5928 45.3868 79.1421 45.324L71.9403 47.8613L70.994 50.329C71.4721 51.6624 72.0798 53.4534 72.4483 54.9062C73.629 55.8571 75.0555 56.454 76.5622 56.6276C78.7237 56.7768 80.6263 55.1052 81.971 53.0554L80.4769 45.6026Z" fill="#FB887A"/>
</g>
<path d="M70.3368 48.4286C71.2707 50.8122 72.0558 53.2514 72.6876 55.7321C73.2056 58.3391 80.2579 62.777 81.0349 63.0357C81.8118 63.2944 82.3398 54.6873 82.3398 54.6873L80.2579 44.5181L70.3368 48.4286Z" stroke="#181925" stroke-width="1.41667" stroke-linecap="round" stroke-linejoin="round"/>
<path d="M65.6348 43.9908C65.6348 43.9908 62.7561 41.6525 62.7561 43.9908C62.7561 46.3291 65.3758 47.6426 67.4577 47.6426" fill="#F9F8F9"/>
<path d="M65.6348 43.9908C65.6348 43.9908 62.7561 41.6525 62.7561 43.9908C62.7561 46.3291 65.3758 47.6426 67.4577 47.6426" stroke="#181925" stroke-width="1.41667" stroke-linecap="round" stroke-linejoin="round"/>
<path d="M81.0343 36.4285C81.0343 36.4285 82.8671 33.5628 83.3851 36.6971C83.6237 38.7376 83.0633 40.7912 81.8212 42.4285L81.0343 36.4285Z" fill="#F9F8F9" stroke="#181925" stroke-width="1.41667" stroke-linecap="round" stroke-linejoin="round"/>
<g opacity="0.5">
<path d="M65.6348 43.9908C65.6348 43.9908 62.7561 41.6525 62.7561 43.9908C62.7561 46.3291 65.3758 47.6426 67.4577 47.6426" fill="#FB887A"/>
<path d="M65.6348 43.9908C65.6348 43.9908 62.7561 41.6525 62.7561 43.9908C62.7561 46.3291 65.3758 47.6426 67.4577 47.6426" stroke="#181925" stroke-width="1.41667" stroke-linecap="round" stroke-linejoin="round"/>
</g>
<path opacity="0.5" d="M81.0343 36.4285C81.0343 36.4285 82.8671 33.5628 83.3851 36.6971C83.6237 38.7376 83.0633 40.7912 81.8212 42.4285L81.0343 36.4285Z" fill="#FB887A" stroke="#181925" stroke-width="1.41667" stroke-linecap="round" stroke-linejoin="round"/>
<path d="M62.3973 36.4484C62.3973 36.4484 64.6386 45.7718 69.4497 50.3789C74.2609 54.9859 79.4107 55.0257 81.1937 46.8166C82.6579 40.0504 79.0222 31.0254 79.0222 31.0254C79.0222 31.0254 67.2882 21.3736 62.3973 36.4484Z" fill="#F9F8F9"/>
<g style="mix-blend-mode:multiply" opacity="0.5">
<path d="M70.7542 27.9906L72.577 32.5677C72.577 32.5677 75.4458 31.9309 77.0594 35.3936C78.6731 38.8564 80.2968 43.931 79.3704 47.8614C78.4839 51.6028 76.3821 52.8366 73.1448 52.9262C76.671 54.4287 79.8684 52.9262 81.1932 46.7967C82.6575 40.0305 79.0218 31.0055 79.0218 31.0055C79.0218 31.0055 75.0473 27.7517 70.7542 27.9906Z" fill="#FB887A"/>
</g>
<path d="M62.3973 36.4484C62.3973 36.4484 64.6386 45.7718 69.4497 50.3789C74.2609 54.9859 79.4107 55.0257 81.1937 46.8166C82.6579 40.0504 79.0222 31.0254 79.0222 31.0254C79.0222 31.0254 67.2882 21.3736 62.3973 36.4484Z" stroke="#181925" stroke-width="1.41667" stroke-linecap="round" stroke-linejoin="round"/>
<path d="M71.3023 41.3737C71.5812 41.9011 71.5314 42.4683 71.1927 42.6474C70.854 42.8265 70.356 42.5379 70.087 42.0106C69.8181 41.4832 69.8579 40.926 70.1966 40.7469C70.5353 40.5678 71.0333 40.8563 71.3023 41.3737Z" fill="#181925"/>
<path d="M76.5014 39.7618C76.7006 40.319 76.5711 40.8762 76.2125 40.9956C75.8539 41.115 75.3957 40.7767 75.2164 40.2195C75.0371 39.6623 75.1467 39.1051 75.5053 38.9857C75.8639 38.8663 76.3022 39.2245 76.5014 39.7618Z" fill="#181925"/>
<path d="M76.8606 36.7768C76.4537 36.5037 75.9684 36.3713 75.479 36.4001C74.9896 36.4289 74.5232 36.6171 74.1512 36.936C72.7168 38.0504 75.4262 43.6326 75.4262 43.6326C75.4262 43.6326 75.476 45.3938 73.2148 44.5778" stroke="#181925" stroke-width="0.708333" stroke-linecap="round" stroke-linejoin="round"/>
<path d="M76.8611 46.3885C76.706 46.755 76.4677 47.0804 76.1651 47.3391C75.8625 47.5978 75.5038 47.7826 75.1174 47.8791C74.731 47.9756 74.3275 47.9811 73.9386 47.8951C73.5498 47.8091 73.1862 47.634 72.8767 47.3836" stroke="#181925" stroke-width="0.708333" stroke-linecap="round" stroke-linejoin="round"/>
<path d="M70.7949 38.2592C70.7949 38.2592 68.2449 35.8611 67.1293 40.488" stroke="#181925" stroke-width="0.708333" stroke-linecap="round" stroke-linejoin="round"/>
<path d="M79.1718 28.0702C76.3728 25.6423 74.1116 25.6721 73.1255 25.9905C72.2024 25.4152 71.1527 25.0736 70.0675 24.9955C62.2381 23.9507 61.1922 29.9707 61.1922 35.6921C61.1922 41.4136 56.2118 48.2097 59.6284 48.9958C60.5634 49.2199 61.5476 49.1072 62.4076 48.6777C63.2677 48.2481 63.9484 47.5292 64.33 46.6475C64.33 46.6475 67.9856 40.6773 67.9856 36.4683C67.9856 32.2593 72.5378 32.6573 72.5378 32.6573C72.7343 32.3675 72.9913 32.1235 73.291 31.9422C73.5908 31.7608 73.9263 31.6464 74.2744 31.6067C74.6226 31.567 74.9753 31.603 75.3082 31.7122C75.6412 31.8214 75.9466 32.0012 76.2034 32.2394C78.2753 34.0105 78.5144 36.0902 80.1878 36.6275C81.8613 37.1648 84.6603 34.4782 84.6603 34.4782C83.0658 32.152 81.2257 30.0037 79.1718 28.0702Z" fill="#181925"/>
<path d="M72.7568 29.6323C72.7568 29.6323 69.6091 27.1049 66.7802 29.9407C63.9513 32.7766 64.2601 38.1398 63.3138 41.6125C62.3675 45.0852 59.8374 45.7121 59.8374 45.7121" stroke="#F9F8F9" stroke-width="0.708333" stroke-linecap="round" stroke-linejoin="round"/>
<path d="M70.5556 28.6869C70.5556 28.6869 67.1589 25.3237 62.8856 29.5824C59.6284 32.8461 61.0827 34.9855 60.4452 40.3487" stroke="#F9F8F9" stroke-width="0.708333" stroke-linecap="round" stroke-linejoin="round"/>
<path d="M74.3405 28.0502C74.3405 28.0502 80.317 25.2143 82.867 32.4681" stroke="#F9F8F9" stroke-width="0.708333" stroke-linecap="round" stroke-linejoin="round"/>
<path d="M61.4509 63.2944L52.4163 99.6132L78.9124 107.116L80.2173 102.419L62.8155 94.3993L68.7224 73.5035C68.7224 73.5035 67.9454 69.593 63.7419 65.1651" fill="#F9F8F9"/>
<g style="mix-blend-mode:multiply" opacity="0.5">
<path d="M80.2576 102.449L62.8558 94.4291L68.7627 73.5333C68.3 71.7987 67.5492 70.1539 66.5414 68.6676L65.9736 68.2397V74.0109C65.9736 77.7025 61.3517 89.4738 59.7281 92.24C58.1044 95.0062 55.5743 98.4689 55.5743 98.4689L60.6544 96.1604L79.909 103.862L80.2576 102.449Z" fill="#FB887A"/>
</g>
<path d="M61.4509 63.2944L52.4163 99.6132L78.9124 107.116L80.2173 102.419L62.8155 94.3993L68.7224 73.5035C68.7224 73.5035 67.9454 69.593 63.7419 65.1651" stroke="#181925" stroke-width="1.41667" stroke-linecap="round" stroke-linejoin="round"/>
<path d="M135.949 74.2001L115.888 69.9911L95.3983 46.3391L98.4264 65.3642L110.997 77.3245L136.258 78.4788L135.949 74.2001Z" fill="#F9F8F9"/>
<g style="mix-blend-mode:multiply" opacity="0.5">
<path d="M95.3983 46.3391L97.8387 61.5234L99.3927 66.2697L99.5919 66.4488C100.18 65.8418 103.497 62.399 104.343 62.399C105.19 62.399 114.743 70.7075 113.358 71.3543L111.963 72.0409L135.76 75.9613L135.929 74.1404L115.908 69.9414L95.3983 46.3391Z" fill="#FB887A"/>
</g>
<path d="M135.949 74.2001L115.888 69.9911L95.3983 46.3391L98.4264 65.3642L110.997 77.3245L136.258 78.4788L135.949 74.2001Z" stroke="#181925" stroke-width="1.41667" stroke-linecap="round" stroke-linejoin="round"/>
<path d="M323.225 275.585L67.7565 238.192C66.9443 238.071 66.2132 237.634 65.7238 236.975C65.2345 236.316 65.0269 235.491 65.1467 234.679L86.4233 89.6926C86.4818 89.2913 86.619 88.9055 86.827 88.5572C87.0349 88.2089 87.3096 87.9049 87.6352 87.6628C87.9609 87.4206 88.3312 87.245 88.7249 87.146C89.1186 87.047 89.5279 87.0264 89.9296 87.0856L94.7706 87.7921C95.3838 87.884 96.0105 87.7888 96.5686 87.519C97.1267 87.2491 97.5902 86.8171 97.8983 86.2796L104.323 75.185C104.518 74.8367 104.783 74.5319 105.1 74.2895C106.604 73.203 108.473 72.746 110.31 73.0158L174.707 82.4487C176.152 82.656 177.498 83.3021 178.562 84.2995C178.846 84.5837 179.07 84.9221 179.22 85.2945L184.947 99.4639C185.148 99.965 185.478 100.405 185.903 100.738C186.327 101.072 186.833 101.288 187.368 101.364L345.399 124.509C346.211 124.627 346.942 125.062 347.434 125.719C347.925 126.376 348.135 127.2 348.018 128.011L326.742 272.988C326.619 273.798 326.18 274.526 325.521 275.012C324.862 275.499 324.036 275.705 323.225 275.585Z" fill="#181925" stroke="#181925" stroke-width="1.41667" stroke-miterlimit="10"/>
<path d="M325.945 274.879H72.7273C71.9922 274.879 71.2642 274.734 70.585 274.453C69.9059 274.172 69.2887 273.76 68.7689 273.241C68.2491 272.722 67.8367 272.105 67.5554 271.427C67.2741 270.748 67.1293 270.021 67.1293 269.287V127.753C67.1293 126.27 67.7191 124.847 68.7689 123.799C69.8188 122.75 71.2426 122.161 72.7273 122.161H73.4146C74.5354 122.159 75.63 121.822 76.5581 121.195C77.4863 120.567 78.2057 119.677 78.6242 118.638L82.4791 108.957C82.91 107.839 83.6978 106.895 84.7203 106.27C85.8188 105.622 87.0705 105.279 88.3461 105.275H153.431C154.306 105.274 155.173 105.433 155.991 105.743C157.127 106.2 158.075 107.028 158.681 108.091L165.305 119.365C165.798 120.207 166.504 120.905 167.351 121.39C168.199 121.876 169.159 122.131 170.136 122.131H325.945C327.43 122.131 328.854 122.72 329.904 123.769C330.953 124.818 331.543 126.24 331.543 127.723V269.287C331.543 270.021 331.398 270.748 331.117 271.427C330.836 272.105 330.423 272.722 329.904 273.241C329.384 273.76 328.767 274.172 328.087 274.453C327.408 274.734 326.68 274.879 325.945 274.879Z" fill="#FB887A"/>
<path opacity="0.1" d="M325.945 274.879H72.7273C71.9922 274.879 71.2642 274.734 70.585 274.453C69.9059 274.172 69.2887 273.76 68.7689 273.241C68.2491 272.722 67.8367 272.105 67.5554 271.427C67.2741 270.748 67.1293 270.021 67.1293 269.287V127.753C67.1293 126.27 67.7191 124.847 68.7689 123.799C69.8188 122.75 71.2426 122.161 72.7273 122.161H73.4146C74.5354 122.159 75.63 121.822 76.5581 121.195C77.4863 120.567 78.2057 119.677 78.6242 118.638L82.4791 108.957C82.91 107.839 83.6978 106.895 84.7203 106.27C85.8188 105.622 87.0705 105.279 88.3461 105.275H153.431C154.306 105.274 155.173 105.433 155.991 105.743C157.127 106.2 158.075 107.028 158.681 108.091L165.305 119.365C165.798 120.207 166.504 120.905 167.351 121.39C168.199 121.876 169.159 122.131 170.136 122.131H325.945C327.43 122.131 328.854 122.72 329.904 123.769C330.953 124.818 331.543 126.24 331.543 127.723V269.287C331.543 270.021 331.398 270.748 331.117 271.427C330.836 272.105 330.423 272.722 329.904 273.241C329.384 273.76 328.767 274.172 328.087 274.453C327.408 274.734 326.68 274.879 325.945 274.879Z" fill="#181925"/>
<path d="M325.945 274.879H72.7273C71.9922 274.879 71.2642 274.734 70.585 274.453C69.9059 274.172 69.2887 273.76 68.7689 273.241C68.2491 272.722 67.8367 272.105 67.5554 271.427C67.2741 270.748 67.1293 270.021 67.1293 269.287V127.753C67.1293 126.27 67.7191 124.847 68.7689 123.799C69.8188 122.75 71.2426 122.161 72.7273 122.161H73.4146C74.5354 122.159 75.63 121.822 76.5581 121.195C77.4863 120.567 78.2057 119.677 78.6242 118.638L82.4791 108.957C82.91 107.839 83.6978 106.895 84.7203 106.27C85.8188 105.622 87.0705 105.279 88.3461 105.275H153.431C154.306 105.274 155.173 105.433 155.991 105.743C157.127 106.2 158.075 107.028 158.681 108.091L165.305 119.365C165.798 120.207 166.504 120.905 167.351 121.39C168.199 121.876 169.159 122.131 170.136 122.131H325.945C327.43 122.131 328.854 122.72 329.904 123.769C330.953 124.818 331.543 126.24 331.543 127.723V269.287C331.543 270.021 331.398 270.748 331.117 271.427C330.836 272.105 330.423 272.722 329.904 273.241C329.384 273.76 328.767 274.172 328.087 274.453C327.408 274.734 326.68 274.879 325.945 274.879V274.879Z" stroke="#181925" stroke-width="1.41667" stroke-miterlimit="10"/>
<path d="M138.679 121.683H98.1578C97.1909 121.683 96.2636 121.299 95.5799 120.616C94.8962 119.933 94.5121 119.007 94.5121 118.041C94.5108 117.562 94.6041 117.088 94.7867 116.645C94.9694 116.202 95.2377 115.799 95.5764 115.46C95.915 115.12 96.3174 114.851 96.7604 114.668C97.2033 114.484 97.6782 114.39 98.1578 114.39H138.679C139.649 114.39 140.578 114.774 141.264 115.459C141.95 116.144 142.335 117.073 142.335 118.041C142.335 118.52 142.24 118.995 142.056 119.437C141.872 119.88 141.603 120.282 141.263 120.62C140.924 120.958 140.521 121.226 140.077 121.409C139.634 121.591 139.159 121.684 138.679 121.683Z" fill="#F9F8F9"/>
<path d="M325.945 299.576H72.7273C71.2426 299.576 69.8188 298.986 68.7689 297.938C67.7191 296.889 67.1293 295.467 67.1293 293.983V152.45C67.1293 150.966 67.7191 149.544 68.7689 148.495C69.8188 147.447 71.2426 146.858 72.7273 146.858H73.4146C74.5357 146.857 75.6309 146.521 76.5593 145.893C77.4877 145.265 78.2068 144.374 78.6242 143.335L82.4791 133.663C82.9074 132.544 83.6958 131.599 84.7203 130.977C85.8171 130.325 87.0699 129.981 88.3461 129.982H153.431C154.306 129.981 155.173 130.139 155.991 130.449C157.13 130.907 158.078 131.739 158.681 132.808L165.305 144.091C165.798 144.933 166.504 145.632 167.351 146.117C168.199 146.602 169.159 146.858 170.136 146.858H325.945C327.43 146.858 328.854 147.447 329.904 148.495C330.953 149.544 331.543 150.966 331.543 152.45V293.983C331.543 295.467 330.953 296.889 329.904 297.938C328.854 298.986 327.43 299.576 325.945 299.576Z" fill="#181925" stroke="#181925" stroke-width="1.41667" stroke-miterlimit="10"/>
<path d="M158.093 92.4987L117.89 87.5235C116.93 87.4016 116.057 86.9054 115.462 86.1429C114.867 85.3805 114.597 84.4138 114.713 83.4538C114.835 82.4933 115.333 81.6204 116.099 81.0271C116.865 80.4337 117.835 80.1685 118.797 80.2896L158.989 85.2647C159.951 85.3841 160.825 85.8797 161.421 86.6428C162.017 87.4059 162.285 88.374 162.167 89.3345C162.108 89.8096 161.956 90.2685 161.719 90.6848C161.482 91.101 161.165 91.4666 160.787 91.7605C160.408 92.0544 159.976 92.2709 159.513 92.3975C159.051 92.5242 158.568 92.5586 158.093 92.4987Z" fill="#FB887A"/>
<path opacity="0.5" d="M158.093 92.4987L117.89 87.5235C116.93 87.4016 116.057 86.9054 115.462 86.1429C114.867 85.3805 114.597 84.4138 114.713 83.4538C114.835 82.4933 115.333 81.6204 116.099 81.0271C116.865 80.4337 117.835 80.1685 118.797 80.2896L158.989 85.2647C159.951 85.3841 160.825 85.8797 161.421 86.6428C162.017 87.4059 162.285 88.374 162.167 89.3345C162.108 89.8096 161.956 90.2685 161.719 90.6848C161.482 91.101 161.165 91.4666 160.787 91.7605C160.408 92.0544 159.976 92.2709 159.513 92.3975C159.051 92.5242 158.568 92.5586 158.093 92.4987Z" fill="#F9F8F9"/>
<path d="M138.679 146.39H98.1578C97.6782 146.39 97.2033 146.295 96.7604 146.112C96.3174 145.928 95.915 145.659 95.5764 145.32C95.2377 144.98 94.9694 144.578 94.7867 144.135C94.6041 143.692 94.5108 143.217 94.5121 142.738C94.5121 141.771 94.8959 140.844 95.5793 140.159C96.2627 139.475 97.19 139.089 98.1578 139.086H138.679C139.649 139.086 140.578 139.471 141.264 140.156C141.95 140.841 142.335 141.77 142.335 142.738C142.335 143.707 141.95 144.635 141.264 145.32C140.578 146.005 139.649 146.39 138.679 146.39Z" fill="#FB887A"/>
<path opacity="0.5" d="M138.679 146.39H98.1578C97.6782 146.39 97.2033 146.295 96.7604 146.112C96.3174 145.928 95.915 145.659 95.5764 145.32C95.2377 144.98 94.9694 144.578 94.7867 144.135C94.6041 143.692 94.5108 143.217 94.5121 142.738C94.5121 141.771 94.8959 140.844 95.5793 140.159C96.2627 139.475 97.19 139.089 98.1578 139.086H138.679C139.649 139.086 140.578 139.471 141.264 140.156C141.95 140.841 142.335 141.77 142.335 142.738C142.335 143.707 141.95 144.635 141.264 145.32C140.578 146.005 139.649 146.39 138.679 146.39Z" fill="#F9F8F9"/>
<path d="M334.222 189.425H64.4394C61.5402 189.425 59.1899 191.773 59.1899 194.669V357.745C59.1899 360.642 61.5402 362.989 64.4394 362.989H334.222C337.121 362.989 339.472 360.642 339.472 357.745V194.669C339.472 191.773 337.121 189.425 334.222 189.425Z" fill="#F9F8F9"/>
<g style="mix-blend-mode:multiply">
<path d="M339.472 236.142C308.404 265.148 273.104 289.271 234.782 307.685C178.154 334.74 113.428 353.387 75.7156 362.989H334.213C334.903 362.99 335.587 362.856 336.225 362.593C336.863 362.33 337.443 361.944 337.931 361.457C338.42 360.97 338.807 360.391 339.072 359.754C339.336 359.117 339.472 358.435 339.472 357.745V236.142Z" fill="#FB887A"/>
</g>
<path opacity="0.2" d="M339.472 236.142C308.404 265.148 273.104 289.271 234.782 307.685C178.154 334.74 113.428 353.387 75.7156 362.989H334.213C334.903 362.99 335.587 362.856 336.225 362.593C336.863 362.33 337.443 361.944 337.931 361.457C338.42 360.97 338.807 360.391 339.072 359.754C339.336 359.117 339.472 358.435 339.472 357.745V236.142Z" fill="#F9F8F9"/>
<path d="M334.222 189.425H64.4394C61.5402 189.425 59.1899 191.773 59.1899 194.669V357.745C59.1899 360.642 61.5402 362.989 64.4394 362.989H334.222C337.121 362.989 339.472 360.642 339.472 357.745V194.669C339.472 191.773 337.121 189.425 334.222 189.425Z" stroke="#181925" stroke-width="1.41667" stroke-miterlimit="10"/>
<path d="M63.2445 204.669V197.704C63.2471 196.312 63.8024 194.978 64.7885 193.995C65.7745 193.012 67.1108 192.46 68.5039 192.46H79.9092" stroke="#181925" stroke-width="1.41667" stroke-miterlimit="10"/>
<path d="M63.2445 310.451V213.157" stroke="#181925" stroke-width="1.41667" stroke-miterlimit="10"/>
<path d="M335.407 343.646V354.661C335.409 355.35 335.274 356.033 335.011 356.671C334.747 357.308 334.361 357.887 333.873 358.375C333.386 358.863 332.807 359.25 332.169 359.514C331.531 359.779 330.848 359.915 330.158 359.915H320.964" stroke="#181925" stroke-width="1.41667" stroke-miterlimit="10"/>
<path d="M335.407 202.221V335.457" stroke="#181925" stroke-width="1.41667" stroke-miterlimit="10"/>
<path d="M240.998 252.889H157.654C156.152 252.889 154.935 254.105 154.935 255.605V298.083C154.935 299.583 156.152 300.8 157.654 300.8H240.998C242.5 300.8 243.717 299.583 243.717 298.083V255.605C243.717 254.105 242.5 252.889 240.998 252.889Z" fill="#181925" stroke="#181925" stroke-width="1.41667" stroke-miterlimit="10"/>
<path d="M240.998 252.889H157.654C156.152 252.889 154.935 254.105 154.935 255.605V264.739C154.935 266.24 156.152 267.456 157.654 267.456H240.998C242.5 267.456 243.717 266.24 243.717 264.739V255.605C243.717 254.105 242.5 252.889 240.998 252.889Z" fill="#F9F8F9" stroke="#181925" stroke-width="1.41667" stroke-miterlimit="10"/>
<path d="M78.9133 107.116L80.7362 110.509L84.611 113.295C84.8546 113.474 85.1464 113.575 85.4485 113.586C85.7505 113.596 86.0488 113.516 86.3044 113.355L86.643 113.136C86.8894 112.986 87.0728 112.752 87.1589 112.478C87.2451 112.203 87.2281 111.906 87.1112 111.643L84.9098 106.588L86.394 107.743C86.6296 107.924 86.9266 108.007 87.2222 107.973C87.5178 107.94 87.7888 107.793 87.9778 107.564C88.1419 107.359 88.2313 107.104 88.2313 106.842C88.2313 106.58 88.1419 106.325 87.9778 106.121L84.5214 101.753L80.1983 102.419L78.9133 107.116Z" fill="#F9F8F9" stroke="#181925" stroke-width="1.41667" stroke-miterlimit="10"/>
<path d="M86.6824 113.136L83.2159 108.588" stroke="#181925" stroke-width="0.708333" stroke-linecap="round" stroke-linejoin="round"/>
<path d="M84.6507 113.295L81.9314 109.693" stroke="#181925" stroke-width="0.708333" stroke-linecap="round" stroke-linejoin="round"/>
<path d="M135.95 74.1998L141.368 74.5182L147.963 78.7272C147.963 78.7272 148.331 80.0108 147.415 80.1899C146.498 80.3691 141.548 78.5481 141.548 78.5481L136.258 78.4785L135.95 74.1998Z" fill="#F9F8F9" stroke="#181925" stroke-width="1.41667" stroke-miterlimit="10"/>
<path d="M136.229 77.8119L141.916 80.3791C141.916 80.3791 142.833 79.0955 141.548 78.5482L139.675 77.2646" fill="#F9F8F9"/>
<path d="M136.229 77.8119L141.916 80.3791C141.916 80.3791 142.833 79.0955 141.548 78.5482L139.675 77.2646" stroke="#181925" stroke-width="1.41667" stroke-linejoin="round"/>
<path d="M337.17 174.848L334.819 167.823L332.18 164.211C332.136 164.145 332.072 164.095 331.998 164.069C331.923 164.043 331.842 164.043 331.767 164.068C331.692 164.093 331.627 164.142 331.583 164.207C331.539 164.273 331.518 164.351 331.522 164.43V174.838L333.515 177.455L337.17 174.848Z" fill="#F9F8F9"/>
<path d="M375.48 205.565L355.758 206.261C355.03 206.287 354.31 206.105 353.682 205.736C353.054 205.368 352.544 204.829 352.211 204.182L337.17 174.848C337.17 174.848 333.784 176.679 333.525 177.455C333.266 178.231 344.661 206.779 348.157 215.545C348.451 216.281 348.966 216.908 349.632 217.339C350.297 217.77 351.08 217.985 351.873 217.953L373.916 217.018" fill="#F9F8F9"/>
<path d="M375.48 205.565L355.758 206.261C355.03 206.287 354.31 206.105 353.682 205.736C353.054 205.368 352.544 204.829 352.211 204.182L337.17 174.848C337.17 174.848 333.784 176.679 333.525 177.455C333.266 178.231 344.661 206.779 348.157 215.545C348.451 216.281 348.966 216.908 349.632 217.339C350.297 217.77 351.08 217.985 351.873 217.953L373.916 217.018" stroke="#181925" stroke-width="1.41667" stroke-miterlimit="10"/>
<path d="M338.615 178.5L335.527 179.773" stroke="#181925" stroke-width="1.0625" stroke-miterlimit="10"/>
<g opacity="0.5">
<path d="M375.48 205.565L355.758 206.261C355.03 206.287 354.31 206.105 353.682 205.736C353.054 205.368 352.544 204.829 352.211 204.182L337.17 174.848C337.17 174.848 333.784 176.679 333.525 177.455C333.266 178.231 344.661 206.779 348.157 215.545C348.451 216.281 348.966 216.908 349.632 217.339C350.297 217.77 351.08 217.985 351.873 217.953L373.916 217.018" fill="#FB887A"/>
<path d="M375.48 205.565L355.758 206.261C355.03 206.287 354.31 206.105 353.682 205.736C353.054 205.368 352.544 204.829 352.211 204.182L337.17 174.848C337.17 174.848 333.784 176.679 333.525 177.455C333.266 178.231 344.661 206.779 348.157 215.545C348.451 216.281 348.966 216.908 349.632 217.339C350.297 217.77 351.08 217.985 351.873 217.953L373.916 217.018" stroke="#181925" stroke-width="1.41667" stroke-miterlimit="10"/>
<path d="M338.615 178.5L335.527 179.773" stroke="#181925" stroke-width="1.0625" stroke-miterlimit="10"/>
</g>
<path d="M337.17 174.848L334.819 167.823L332.18 164.211C332.136 164.145 332.072 164.095 331.998 164.069C331.923 164.043 331.842 164.043 331.767 164.068C331.692 164.093 331.627 164.142 331.583 164.207C331.539 164.273 331.518 164.351 331.522 164.43V174.838L333.515 177.455L337.17 174.848Z" fill="#FB887A"/>
<path opacity="0.5" d="M337.17 174.848L334.819 167.823L332.18 164.211C332.136 164.145 332.072 164.095 331.998 164.069C331.923 164.043 331.842 164.043 331.767 164.068C331.692 164.093 331.627 164.142 331.583 164.207C331.539 164.273 331.518 164.351 331.522 164.43V174.838L333.515 177.455L337.17 174.848Z" fill="#F9F8F9"/>
<path d="M337.17 174.848L334.819 167.823L332.18 164.211C332.136 164.145 332.072 164.095 331.998 164.069C331.923 164.043 331.842 164.043 331.767 164.068C331.692 164.093 331.627 164.142 331.583 164.207C331.539 164.273 331.518 164.351 331.522 164.43V174.838L333.515 177.455L337.17 174.848Z" stroke="#181925" stroke-width="1.41667" stroke-miterlimit="10"/>
<path d="M381.587 187.027C380.64 188.226 379.96 189.614 379.595 191.097C379.306 193.007 379.764 200.361 379.764 200.361L369.504 201.515C369.504 201.515 370.281 194.042 370.321 192.798C370.649 191.256 371.304 189.801 372.24 188.531C373.176 187.262 374.372 186.206 375.75 185.435C379.276 183.704 382.274 184.549 381.587 187.027Z" fill="#F9F8F9"/>
<g style="mix-blend-mode:multiply" opacity="0.5">
<path d="M381.517 187.107C379.654 186.599 377.393 186.032 375.481 185.574C374.166 186.356 373.027 187.4 372.134 188.642C371.241 189.883 370.614 191.294 370.291 192.788C370.291 193.266 370.152 194.659 370.012 196.192C371.008 195.963 372.592 195.614 373.767 195.405C374.698 195.255 375.615 195.026 376.507 194.719L376.158 200.689H376.387L379.734 200.311C379.734 200.311 379.276 192.958 379.565 191.047C379.929 189.61 380.594 188.267 381.517 187.107Z" fill="#FB887A"/>
</g>
<path d="M381.587 187.027C380.64 188.226 379.96 189.614 379.595 191.097C379.306 193.007 379.764 200.361 379.764 200.361L369.504 201.515C369.504 201.515 370.281 194.042 370.321 192.798C370.649 191.256 371.304 189.801 372.24 188.531C373.176 187.262 374.372 186.206 375.75 185.435C379.276 183.704 382.274 184.549 381.587 187.027Z" stroke="#181925" stroke-width="1.42228" stroke-miterlimit="10"/>
<path d="M383.718 188.291C392.225 177.067 371.715 165.405 366.326 176.559C365.575 177.935 364.981 179.39 364.553 180.898C363.736 181.395 361.565 182.728 361.167 183.097C360.768 183.465 362.163 184.41 362.93 184.878C361.465 188.47 361.685 192.251 362.103 193.107C362.83 194.579 366.416 194.599 368.777 194.161C371.137 193.724 372.074 191.465 372.761 190.848C373.448 190.231 376.875 191.017 378.08 191.375C379.286 191.733 382.065 190.51 383.718 188.291Z" fill="#F9F8F9"/>
<g style="mix-blend-mode:multiply" opacity="0.5">
<path d="M375.301 187.216C375.301 187.216 375.48 188.062 373.767 188.748C372.054 189.435 371.715 188.918 371.207 190.112C370.991 190.897 370.555 191.604 369.949 192.149C369.344 192.693 368.595 193.054 367.79 193.186C366.168 193.494 364.528 193.703 362.88 193.813C364.234 194.569 366.924 194.51 368.856 194.161C371.207 193.734 372.153 191.465 372.841 190.848C373.528 190.231 376.955 191.017 378.16 191.375C378.443 191.432 378.734 191.432 379.016 191.375C379.466 190.375 379.736 189.304 379.813 188.211L375.301 187.216Z" fill="#FB887A"/>
</g>
<path d="M383.718 188.291C392.225 177.067 371.715 165.405 366.326 176.559C365.575 177.935 364.981 179.39 364.553 180.898C363.736 181.395 361.565 182.728 361.167 183.097C360.768 183.465 362.163 184.41 362.93 184.878C361.465 188.47 361.685 192.251 362.103 193.107C362.83 194.579 366.416 194.599 368.777 194.161C371.137 193.724 372.074 191.465 372.761 190.848C373.448 190.231 376.875 191.017 378.08 191.375C379.286 191.733 382.065 190.51 383.718 188.291Z" stroke="#181925" stroke-width="1.41667" stroke-miterlimit="10"/>
<path d="M367.103 181.883C366.884 182.36 366.516 182.659 366.276 182.549C366.037 182.44 366.017 181.962 366.276 181.485C366.535 181.007 366.864 180.709 367.103 180.818C367.342 180.927 367.322 181.405 367.103 181.883Z" fill="#181925"/>
<path d="M366.904 178.818C366.904 178.818 367.9 177.992 368.099 179.893" stroke="#181925" stroke-width="0.708333" stroke-linecap="round" stroke-linejoin="round"/>
<path d="M362.73 186.808C362.73 186.808 362.73 187.804 364.523 187.804" stroke="#181925" stroke-width="0.708333" stroke-linecap="round" stroke-linejoin="round"/>
<path d="M360.3 251.923L359.513 261.655C359.513 261.655 354.064 300.401 354.323 304.849C354.582 309.297 355.17 355.248 355.17 355.248L361.734 356.293L369.105 305.327L379.455 253.535L360.3 251.923Z" fill="#FB887A" stroke="#181925" stroke-width="1.41667" stroke-miterlimit="10"/>
<path opacity="0.2" d="M360.3 251.923L359.513 261.655C359.513 261.655 354.064 300.401 354.323 304.849C354.582 309.297 355.17 355.248 355.17 355.248L361.734 356.293L369.105 305.327L379.455 253.535L360.3 251.923Z" fill="#181925"/>
<path d="M368.607 287.317C368.607 287.317 366.087 302.133 364.184 309.396C362.282 316.66 362.292 323.904 362.292 331.785C362.292 339.665 359.453 354.193 359.453 354.193" stroke="#181925" stroke-width="1.0625" stroke-miterlimit="10"/>
<path d="M373.618 249.535C377.941 247.267 382.583 245.764 383.907 248.779C386.537 254.809 383.389 263.973 383.389 263.973L385.79 306.242L390.183 357.238L383.619 356.183C383.619 356.183 373.538 313.148 371.964 310.521C370.39 307.894 367.91 271.048 367.91 271.048L362.93 266.521" fill="#FB887A"/>
<path d="M373.618 249.535C377.941 247.267 382.583 245.764 383.907 248.779C386.537 254.809 383.389 263.973 383.389 263.973L385.79 306.242L390.183 357.238L383.619 356.183C383.619 356.183 373.538 313.148 371.964 310.521C370.39 307.894 367.91 271.048 367.91 271.048L362.93 266.521" stroke="#181925" stroke-width="1.41667" stroke-miterlimit="10"/>
<g opacity="0.2">
<path d="M373.618 249.535C377.941 247.267 382.583 245.764 383.907 248.779C386.537 254.809 383.389 263.973 383.389 263.973L385.79 306.242L390.183 357.238L383.619 356.183C383.619 356.183 373.538 313.148 371.964 310.521C370.39 307.894 367.91 271.048 367.91 271.048L362.93 266.521" fill="#181925"/>
</g>
<path d="M378.738 281.556C378.887 291.357 379.883 296.073 380.66 298.66C381.607 301.814 381.288 307.805 381.288 310.601C381.288 313.397 380.023 309.974 382.872 322.909C385.72 335.845 387.603 353.815 387.603 353.815" stroke="#181925" stroke-width="1.0625" stroke-miterlimit="10"/>
<path d="M378.738 260.192C378.738 260.192 379.047 259.555 378.738 274.381C378.738 275.177 378.738 275.943 378.738 276.69" stroke="#181925" stroke-width="1.0625" stroke-miterlimit="10"/>
<path d="M364.165 257.376L363.956 261.814L362.93 264.899L364.464 266.69" stroke="#181925" stroke-width="1.0625" stroke-linecap="round" stroke-linejoin="round"/>
<path d="M362.152 260.023C362.152 260.023 364.722 262.59 371.396 261.814" stroke="#181925" stroke-width="1.0625" stroke-linecap="round" stroke-linejoin="round"/>
<path d="M377.921 257.804C382.901 256.809 383.22 255.436 384.943 254.282C384.975 252.4 384.637 250.53 383.947 248.779C382.642 245.794 377.971 247.267 373.657 249.535L371.566 252.839L360.34 251.923L359.981 256.321C365.745 258.297 371.91 258.806 377.921 257.804Z" fill="#181925"/>
<path d="M361.426 254.968L361.316 256.719L364.165 257.376L364.384 255.078L361.426 254.968Z" fill="#F9F8F9" stroke="#181925" stroke-width="1.0625" stroke-miterlimit="10"/>
<path d="M381.307 257.565L380.829 253.207L382.273 252.729L383.001 256.6" fill="#FB887A"/>
<path d="M381.307 257.565L380.829 253.207L382.273 252.729L383.001 256.6" stroke="#181925" stroke-width="1.41667" stroke-miterlimit="10"/>
<path d="M370.171 259.018L369.205 253.933H371.626L372.592 258.292" fill="#FB887A"/>
<path d="M370.171 259.018L369.205 253.933H371.626L372.592 258.292" stroke="#181925" stroke-width="1.41667" stroke-miterlimit="10"/>
<g opacity="0.2">
<path d="M381.308 257.565L380.829 253.207L382.274 252.729L383.001 256.6" fill="#181925"/>
<path d="M370.171 259.018L369.205 253.933H371.625L372.592 258.291" fill="#181925"/>
</g>
<path d="M359.015 213.356C359.015 213.356 358.188 218.878 355.708 228.281C353.228 237.684 350.728 248.958 350.728 248.958L352.112 254.749L356.246 248.68L359.015 213.356Z" fill="#181925" stroke="#181925" stroke-width="1.41667" stroke-miterlimit="10"/>
<path d="M365.917 205.366C365.917 205.366 360.12 206.739 359.572 209.495C359.277 210.764 359.09 212.055 359.015 213.356L367.85 206.192L378.897 201.774L365.917 205.366Z" fill="#181925" stroke="#181925" stroke-width="1.41667" stroke-miterlimit="10"/>
<path d="M367.501 203.236C367.501 203.236 362.789 208.56 360.917 210.749C359.044 212.938 359.034 236.431 359.034 239.883C359.034 243.336 357.162 252.709 360.289 254.59C363.417 256.471 382.552 255.844 384.435 252.709C386.317 249.575 387.562 212.002 387.254 208.56C387.019 207.015 386.41 205.551 385.479 204.296C384.549 203.04 383.325 202.031 381.915 201.356C379.733 200.351 367.501 203.236 367.501 203.236Z" fill="#F9F8F9"/>
<g style="mix-blend-mode:multiply" opacity="0.5">
<path d="M381.915 201.355C381.655 201.25 381.379 201.19 381.099 201.176L379.744 201.883C382.024 203.749 383.593 206.342 384.187 209.226C384.817 213.417 384.759 217.681 384.017 221.853C383.34 226.46 372.403 221.853 374.455 223.565C376.507 225.276 384.187 228.172 384.535 229.704C384.884 231.236 380.73 233.794 379.236 233.973C377.742 234.152 380.232 237.555 381.796 240.45C383.36 243.346 382.792 247.416 379.236 250.182C375.68 252.948 367.422 254.311 363.856 254.451C362.701 254.451 361.984 254.749 361.764 255.087C367.243 256.311 382.752 255.515 384.436 252.709C386.318 249.575 387.563 212.002 387.255 208.56C387.02 207.015 386.411 205.551 385.48 204.295C384.55 203.04 383.326 202.031 381.915 201.355Z" fill="#FB887A"/>
</g>
<path d="M367.501 203.236C367.501 203.236 362.789 208.56 360.917 210.749C359.044 212.938 359.034 236.431 359.034 239.883C359.034 243.336 357.162 252.709 360.289 254.59C363.417 256.471 382.552 255.844 384.435 252.709C386.317 249.575 387.562 212.002 387.254 208.56C387.019 207.015 386.41 205.551 385.479 204.296C384.549 203.04 383.325 202.031 381.915 201.356C379.733 200.351 367.501 203.236 367.501 203.236Z" stroke="#181925" stroke-width="1.41667" stroke-miterlimit="10"/>
<path d="M377.134 227.067C372.084 225.495 367.661 221.097 367.661 221.097C368.782 226.323 371.824 230.939 376.188 234.033" fill="#F9F8F9"/>
<path d="M377.134 227.067C372.084 225.495 367.661 221.097 367.661 221.097C368.782 226.323 371.824 230.939 376.188 234.033" stroke="#181925" stroke-width="1.0625" stroke-linecap="round" stroke-linejoin="round"/>
<path d="M380.979 197.913L365.928 201.356L364.991 205.744L381.915 201.356L380.979 197.913Z" fill="#F9F8F9" stroke="#181925" stroke-width="1.41667" stroke-miterlimit="10"/>
<path d="M362.611 362.86L361.734 356.253L355.17 355.208L349.702 359.099L344.801 361.785V362.86H362.611Z" fill="#181925" stroke="#181925" stroke-width="1.41667" stroke-miterlimit="10"/>
<path d="M391 363.377L390.183 357.238L383.619 356.183L378.15 360.074L373.249 362.77V363.377H391Z" fill="#181925" stroke="#181925" stroke-width="1.41667" stroke-miterlimit="10"/>
<path d="M334.302 169.116L330.257 166.778C330.257 166.778 328.684 166.589 329.361 168.34L333.405 171.455" fill="#F9F8F9"/>
<path d="M334.302 169.116L330.257 166.778C330.257 166.778 328.684 166.589 329.361 168.34L333.405 171.455" stroke="#181925" stroke-width="1.41667" stroke-linecap="round" stroke-linejoin="round"/>
<path d="M333.704 175.196C333.514 174.716 333.233 174.277 332.877 173.902L332.12 173.086L328.006 167.992C328.006 167.992 326.731 167.136 327.01 168.987L329.56 173.962L325.028 169.713C325.028 169.713 324.171 169.007 324.171 170.002C324.171 170.997 328.285 175.385 328.285 175.385L323.743 173.256C323.743 173.256 322.747 173.962 323.464 174.669C324.181 175.375 327.996 176.798 327.996 176.798L324.6 176.659C324.6 176.659 323.604 177.504 324.311 177.793C325.018 178.082 328.992 178.917 328.992 178.917C329.498 179.346 330.074 179.683 330.696 179.912L331.692 181.753L335.507 179.833L333.704 175.196Z" fill="#F9F8F9" stroke="#181925" stroke-width="1.41667" stroke-linecap="round" stroke-linejoin="round"/>
<path d="M374.435 219.366L351.704 224.689C350.54 224.894 349.341 224.69 348.312 224.111C347.282 223.532 346.485 222.615 346.056 221.515L331.712 181.714L335.527 179.793L351.375 209.117C351.734 209.788 352.3 210.325 352.989 210.649C353.678 210.974 354.453 211.068 355.2 210.918L372.582 206.012" fill="#F9F8F9"/>
<path d="M374.435 219.366L351.704 224.689C350.54 224.894 349.341 224.69 348.312 224.111C347.282 223.532 346.485 222.615 346.056 221.515L331.712 181.714L335.527 179.793L351.375 209.117C351.734 209.788 352.3 210.325 352.989 210.649C353.678 210.974 354.453 211.068 355.2 210.918L372.582 206.012" stroke="#181925" stroke-width="1.41667" stroke-miterlimit="10"/>
<path d="M337.668 183.544L333.245 185.753" stroke="#181925" stroke-width="1.0625" stroke-miterlimit="10"/>
<path d="M371.605 176.679C371.605 176.679 369.185 179.097 370.39 180.908C371.104 181.954 371.648 183.105 372.003 184.321C372.003 184.321 371.007 186.739 371.804 186.739C372.601 186.739 372.203 184.928 373.617 185.336C375.032 185.744 376.436 188.152 375.231 188.958C374.329 189.461 373.373 189.862 372.382 190.152C372.256 190.19 372.143 190.265 372.059 190.366C371.975 190.468 371.922 190.592 371.907 190.723C371.892 190.854 371.916 190.987 371.976 191.104C372.035 191.222 372.128 191.32 372.243 191.385C373.553 192.27 375.062 192.817 376.635 192.978C377.922 193.005 379.207 192.871 380.46 192.58C380.46 192.58 384.445 187.147 387.313 185.734C390.182 184.321 388.927 177.883 388.927 177.077C388.927 176.271 386.108 174.46 386.108 174.46C386.108 174.46 386.915 172.649 383.289 168.629C379.663 164.609 372.81 163.793 372.611 165.206C372.541 165.58 372.58 165.966 372.723 166.319C372.866 166.672 373.107 166.976 373.418 167.196C373.418 167.196 367.372 164.579 364.553 167.395C361.734 170.211 371.605 176.679 371.605 176.679Z" fill="#181925" stroke="#181925" stroke-width="1.41667" stroke-miterlimit="10"/>
<path d="M371.606 176.679C371.606 176.679 376.506 182.649 383.768 183.226" stroke="#F9F8F9" stroke-width="0.708333" stroke-linecap="round" stroke-linejoin="round"/>
<path d="M369.872 178.5C369.872 178.5 372.153 185.126 381.586 187.017" stroke="#F9F8F9" stroke-width="0.708333" stroke-linecap="round" stroke-linejoin="round"/>
</svg>
