<svg width="442" height="386" viewBox="0 0 442 386" fill="none" xmlns="http://www.w3.org/2000/svg">
<path d="M160.954 303.926H117.032V363.495H160.954V303.926Z" fill="#FB887A"/>
<path opacity="0.4" d="M160.954 303.926H117.032V363.495H160.954V303.926Z" fill="#09090D"/>
<path d="M237.328 221.189H193.407V363.495H237.328V221.189Z" fill="#FB887A"/>
<path opacity="0.3" d="M237.328 221.189H193.407V363.495H237.328V221.189Z" fill="#09090D"/>
<path d="M315.587 188.16H271.666V363.495H315.587V188.16Z" fill="#FB887A"/>
<path opacity="0.2" d="M315.587 188.16H271.666V363.495H315.587V188.16Z" fill="#09090D"/>
<path d="M393.845 130.41H349.923V363.495H393.845V130.41Z" fill="#FB887A"/>
<path opacity="0.1" d="M393.845 130.41H349.923V363.495H393.845V130.41Z" fill="#09090D"/>
<path d="M423.584 60.7147L407.119 22.6227L368.781 38.9726L374.355 51.868L390.544 44.9679L362.792 114.033L321.575 165.13L258.843 185.135L258.245 185.327L200.544 215.797L161.341 230.593L149.585 290.83H119.856L95.1591 348.525H18.4177V362.563H104.495L129.202 304.867H161.23L173.703 240.93L206.385 228.601L263.755 198.305L329.936 177.202L375.127 121.179L403.661 50.1681L410.605 66.2439L423.584 60.7147Z" fill="#FB887A"/>
<path d="M357.989 108.266C356.358 104.655 354.543 101.129 352.552 97.7008C350.464 94.4656 337.651 95.873 332.583 97.3718C327.515 98.8706 324.534 117.222 323.55 123.199C322.566 129.176 329.299 154.839 329.299 154.839C326.917 158.102 320.055 157.206 320.055 157.206C320.055 157.206 312.908 136.771 311.418 126.133C309.928 115.495 316.385 89.11 316.385 89.11L336.419 84.0104C336.419 84.0104 350.97 83.7362 357.474 84.0835C367.104 84.5861 364.225 106.328 364.225 106.328C364.225 106.328 363.655 108.266 357.989 108.266Z" fill="#181925" stroke="#181925" stroke-width="1.41667" stroke-linecap="round" stroke-linejoin="round"/>
<path d="M320.821 154.546C320.821 154.546 323.056 158.988 319.699 160.761C316.341 162.534 314.952 165.129 316.774 165.129H328.198C330.212 165.129 332.227 164.097 330.433 160.724C330.074 160.057 327.977 152.984 327.977 152.984L320.821 154.546Z" fill="#181925" stroke="#181925" stroke-width="1.41667" stroke-linecap="round" stroke-linejoin="round"/>
<path d="M357.475 104.482C357.475 104.482 358.22 109.372 358.395 112.186C358.57 115.001 360.483 116.628 362.718 115.595C364.953 114.563 375.835 107.005 375.237 105.369C374.639 103.733 372.257 105.67 369.424 106.283C367.912 106.618 366.372 106.814 364.825 106.867L364.079 102.874L357.475 104.482Z" fill="#181925" stroke="#181925" stroke-width="1.41667" stroke-linecap="round" stroke-linejoin="round"/>
<path d="M312.119 124.625C312.119 124.625 312.919 127.732 314.703 128.774" stroke="#373942" stroke-width="1.0625" stroke-linecap="round" stroke-linejoin="round"/>
<path d="M323.551 96.3391C323.551 96.3391 331.149 94.5113 331.121 95.5989C331.093 96.6864 326.522 98.4137 326.182 99.2545" stroke="#373942" stroke-width="1.0625" stroke-linecap="round" stroke-linejoin="round"/>
<path d="M332.594 95.2699C332.594 95.2699 337.368 93.2592 337.368 92.1351" stroke="#373942" stroke-width="1.0625" stroke-linecap="round" stroke-linejoin="round"/>
<path d="M364.209 106.301C362.289 107.377 360.166 108.046 357.973 108.266" stroke="#373942" stroke-width="1.0625" stroke-linecap="round" stroke-linejoin="round"/>
<path d="M329.016 155.625C327.057 157.233 323.718 157.37 321.859 157.306" stroke="#373942" stroke-width="1.0625" stroke-linecap="round" stroke-linejoin="round"/>
<path d="M329.751 43.5147C329.751 43.5147 332.281 34.1837 327.065 31.8075C327.065 31.8075 323.561 28.2523 316.947 31.8075C310.334 35.3626 312.854 37.7114 314.261 36.8706C314.261 36.8706 311.06 39.7311 311.879 40.6268C312.697 41.5224 314.261 39.9596 314.261 39.9596C314.202 41.5662 314.617 43.1548 315.457 44.5292C316.8 46.357 323.202 45.6442 323.202 45.6442L328.132 44.7303L329.751 43.5147Z" fill="#181925" stroke="#181925" stroke-width="1.41667" stroke-linecap="round" stroke-linejoin="round"/>
<path d="M316.938 92.0892C316.053 92.0413 315.21 91.7003 314.543 91.1205C313.876 90.5407 313.424 89.7556 313.259 88.8905C312.486 84.9515 310.977 77.5671 309.331 71.0143C306.939 61.537 297.944 52.4344 321.556 48.5046C344.671 44.6478 339.437 55.0208 339.143 61.2354C338.894 66.3259 337.653 75.8581 339.658 80.6927C340.028 81.5353 340.093 82.4795 339.841 83.3643C339.59 84.2492 339.037 85.02 338.278 85.5456C334.065 88.3879 326.155 92.601 316.938 92.0892Z" fill="#C2C4CD" stroke="#181925" stroke-width="1.41667" stroke-linecap="round" stroke-linejoin="round"/>
<path d="M311.097 63.8494C313.651 67.3194 316.991 70.144 320.847 72.0952C324.702 74.0463 328.966 75.0692 333.292 75.0814" stroke="#181925" stroke-width="1.0625" stroke-linecap="round" stroke-linejoin="round"/>
<path d="M314.841 81.7804L334.691 81.954C328.687 84.7619 322.147 86.2549 315.512 86.3317" stroke="#181925" stroke-width="1.0625" stroke-linecap="round" stroke-linejoin="round"/>
<path d="M318.915 53.2388C318.915 53.2388 319.835 57.6073 320.755 58.0551C320.755 58.0551 318.52 71.5262 320.313 83.005L321.077 87.3735L324.489 89.0826L327.313 85.8199C327.313 85.8199 326.651 82.7674 326.393 81.753C325.096 75.8765 322.585 64.6444 322.714 57.9911C322.714 57.9911 325.832 55.5418 325.611 53.4215L318.915 53.2388Z" fill="#FB887A" stroke="#181925" stroke-width="1.41667" stroke-linecap="round" stroke-linejoin="round"/>
<path d="M347.403 54.3173L353.391 49.501C355.803 48.8249 358.164 47.9789 360.455 46.9694C365.054 45.0319 376.442 39.2103 376.442 39.2103C377.757 39.0898 379.081 39.0898 380.397 39.2103C382.108 39.4205 384.269 38.598 384.076 37.9308C383.883 37.2636 381.988 38.0862 381.62 37.9308C381.252 37.7754 382.871 34.2751 382.54 33.3612C382.209 32.4473 381.206 33.3612 381.206 33.3612C381.097 33.2257 380.96 33.1152 380.803 33.0373C380.647 32.9595 380.476 32.916 380.301 32.9099C380.127 32.9038 379.953 32.9353 379.791 33.0022C379.63 33.069 379.485 33.1697 379.367 33.2972C379.367 33.2972 378.245 32.7763 377.803 33.7451C377.702 33.6629 377.582 33.6066 377.454 33.581C377.326 33.5554 377.194 33.5614 377.068 33.5983C376.943 33.6353 376.829 33.7021 376.736 33.793C376.643 33.8839 376.573 33.9961 376.534 34.1198C376.23 34.6886 375.885 35.2353 375.503 35.7557C375.503 35.7557 355.396 40.3253 351.827 43.067L342.574 48.3037L347.403 54.3173Z" fill="#F9F8F9" stroke="#181925" stroke-width="1.41667" stroke-linecap="round" stroke-linejoin="round"/>
<path d="M303.324 69.7077L296.664 73.3633C294.837 75.0679 292.885 76.635 290.824 78.0517C286.758 80.9671 275.849 87.6021 275.849 87.6021C275.065 88.6581 274.381 89.7839 273.807 90.9653C273.098 92.5281 271.277 93.9356 270.817 93.4055C270.357 92.8754 272.031 91.7148 272.105 91.3218C272.179 90.9288 268.325 90.4993 267.653 89.7407C266.982 88.9822 268.352 88.6074 268.352 88.6074C268.288 88.4417 268.262 88.264 268.276 88.0871C268.289 87.9101 268.342 87.7383 268.429 87.5838C268.517 87.4293 268.638 87.296 268.784 87.1933C268.93 87.0907 269.096 87.0212 269.272 86.9898C269.272 86.9898 269.41 85.7652 270.468 85.8931C270.468 85.8931 270.348 84.9792 271.452 84.9792C272.098 85.0251 272.747 85.0251 273.393 84.9792C273.393 84.9792 287.761 70.2834 291.983 68.6749L300.436 63.2737L303.324 69.7077Z" fill="#F9F8F9" stroke="#181925" stroke-width="1.41667" stroke-linecap="round" stroke-linejoin="round"/>
<path d="M316.038 48.3493C316.038 48.3493 315.017 55.8343 316.387 57.3879C316.387 57.3879 317.822 52.9463 321.63 55.7612C321.63 55.7612 327.149 52.4254 327.959 56.867C327.959 56.867 329.899 51.5114 329.798 47.4902L317.436 47.344L316.038 48.3493Z" fill="#C2C4CD" stroke="#181925" stroke-width="1.0625" stroke-linecap="round" stroke-linejoin="round"/>
<path d="M308.751 52.8093L295.018 65.2751C295.018 65.2751 299.066 71.4989 301.89 72.8332C304.713 74.1676 309.625 65.1289 309.625 65.1289" fill="#C2C4CD"/>
<path d="M308.751 52.8093L295.018 65.2751C295.018 65.2751 299.066 71.4989 301.89 72.8332C304.713 74.1676 309.625 65.1289 309.625 65.1289" stroke="#181925" stroke-width="1.41667" stroke-linecap="round" stroke-linejoin="round"/>
<path d="M333.725 47.9564L349.132 43.2954C349.132 43.2954 351.809 49.245 350.622 52.9464C349.436 56.6477 337.947 57.388 337.947 57.388" fill="#C2C4CD"/>
<path d="M333.725 47.9564L349.132 43.2954C349.132 43.2954 351.809 49.245 350.622 52.9464C349.436 56.6477 337.947 57.388 337.947 57.388" stroke="#181925" stroke-width="1.41667" stroke-linecap="round" stroke-linejoin="round"/>
<path d="M315.456 44.5019C315.456 44.5019 316.946 54.555 321.122 54.555C325.298 54.555 328.426 49.4279 328.72 48.2124C328.881 47.6109 329.007 47.0006 329.097 46.3846C329.097 46.3846 329.465 46.8232 330.21 46.4577C330.955 46.0921 331.185 41.422 330.661 41.3489C330.092 41.3055 329.52 41.3055 328.95 41.3489C328.95 41.3489 328.95 43.6428 328.352 43.5697C327.754 43.4966 327.902 40.3801 327.534 40.0146C327.166 39.649 325.74 40.0877 324.701 39.3474C323.661 38.6071 322.686 40.2613 320.101 40.3801C317.517 40.4989 317.149 38.8265 316.422 39.6399C315.695 40.4532 316.257 44.1272 315.456 44.5019Z" fill="#F9F8F9" stroke="#181925" stroke-width="1.41667" stroke-linecap="round" stroke-linejoin="round"/>
<path d="M319.457 45.7356C319.144 46.7209 318.97 47.7449 318.942 48.7779C319.09 49.5362 320.984 48.65 321.048 49.2438" stroke="#181925" stroke-width="1.0625" stroke-linecap="round" stroke-linejoin="round"/>
<path d="M321.049 50.8715C321.517 50.8831 321.981 50.7964 322.412 50.6169C322.843 50.4373 323.231 50.1692 323.551 49.83" stroke="#181925" stroke-width="1.0625" stroke-linecap="round" stroke-linejoin="round"/>
<path d="M317.82 46.1744C317.82 46.5493 317.654 46.8509 317.452 46.8509C317.25 46.8509 317.075 46.5493 317.075 46.1744C317.075 45.7996 317.25 45.4979 317.452 45.4979C317.654 45.4979 317.82 45.7996 317.82 46.1744Z" fill="#181925"/>
<path d="M322.327 45.9642C322.327 46.339 322.161 46.6407 321.959 46.6407C321.757 46.6407 321.582 46.339 321.582 45.9642C321.582 45.5894 321.748 45.2877 321.959 45.2877C322.17 45.2877 322.327 45.5894 322.327 45.9642Z" fill="#181925"/>
<path d="M316.377 43.6883C316.377 43.6883 317.296 42.5737 318.556 44.6019" stroke="#181925" stroke-width="1.0625" stroke-linecap="round" stroke-linejoin="round"/>
<path d="M320.728 44.6475C320.728 44.6475 322.356 43.0213 323.183 43.7339" stroke="#181925" stroke-width="1.0625" stroke-linecap="round" stroke-linejoin="round"/>
<path d="M349.62 96.3481L355.884 96.5962" stroke="#373942" stroke-width="1.0625" stroke-linecap="round" stroke-linejoin="round"/>
<path d="M360.032 84.9243C361.136 85.9849 361.951 87.3074 362.398 88.7673C362.846 90.2272 362.911 91.7763 362.589 93.2684" stroke="#373942" stroke-width="1.0625" stroke-linecap="round" stroke-linejoin="round"/>
<path d="M204.159 205.388L203.901 209.61C203.901 209.61 200.222 212.123 197.343 213.887C195.503 215.011 193.829 215.294 194.05 216.181C194.602 218.448 202.531 215.889 206.495 214.938C210.46 213.988 215.693 214.024 211.858 210.432C211.446 209.994 211.062 209.53 210.708 209.043L210.828 204.739L204.159 205.388Z" fill="#181925" stroke="#181925" stroke-width="1.41667" stroke-linecap="round" stroke-linejoin="round"/>
<path d="M255.099 173.135C255.099 173.135 256.212 177.559 256.019 179.048C255.77 180.566 255.817 182.118 256.157 183.618C256.92 186.168 258.539 185.153 262.071 184.294C265.824 183.38 268.887 183.125 268.593 181.397C268.299 179.67 263.598 179.332 262.623 177.979C261.648 176.627 261.078 171.655 261.078 171.655L255.099 173.135Z" fill="#181925" stroke="#181925" stroke-width="1.41667" stroke-linecap="round" stroke-linejoin="round"/>
<path d="M217.68 140.024C217.68 140.024 205.833 164.865 204.085 176.197C202.338 187.53 203.386 207.179 203.386 207.179C203.386 207.179 206.458 209.007 211.665 207.252C211.665 207.252 213.909 178.793 215.602 175.503C217.294 172.213 230.015 154.208 232.342 153.167C234.67 152.125 247.253 160.633 249.056 163.722C250.859 166.811 255.127 177.66 255.127 177.66C255.127 177.66 258.429 179.268 262.678 175.512C262.678 175.512 261.86 161.593 257.932 156.128C254.004 150.662 241.697 137.264 241.697 137.264L217.68 140.024Z" fill="#C2C4CD" stroke="#181925" stroke-width="1.41667" stroke-linecap="round" stroke-linejoin="round"/>
<path opacity="0.3" d="M257.253 164.481C252.829 165.87 248.791 160.587 246.445 158.266C244.099 155.945 239.657 148.999 236.98 150.571C234.303 152.143 232.381 151.713 227.782 150.69C223.182 149.666 216.551 170.796 213.184 173.537C209.817 176.279 211.28 174.333 209.449 190.673C208.162 202.17 205.034 205.031 203.296 205.716C203.296 206.63 203.369 207.215 203.369 207.215C203.369 207.215 206.442 209.043 211.648 207.288C211.648 207.288 213.892 178.829 215.585 175.539C217.277 172.249 229.998 154.245 232.326 153.203C234.653 152.161 247.236 160.67 249.039 163.759C250.842 166.848 255.11 177.696 255.11 177.696C255.11 177.696 258.412 179.304 262.662 175.548C262.35 170.87 261.583 166.233 260.371 161.702C260.124 162.386 259.709 162.997 259.165 163.482C258.621 163.967 257.964 164.31 257.253 164.481Z" fill="#09090D"/>
<path d="M205.998 174.927C205.711 176.614 205.856 178.346 206.42 179.962" stroke="#181925" stroke-width="1.0625" stroke-linecap="round" stroke-linejoin="round"/>
<path d="M250.895 159.92C250.895 159.92 248.053 160.596 249.883 165.404" stroke="#181925" stroke-width="1.0625" stroke-linecap="round" stroke-linejoin="round"/>
<path d="M222.869 147.436C222.869 147.436 231.423 150.662 230.577 151.832C229.731 153.002 225.454 152.262 225.454 152.262" stroke="#181925" stroke-width="1.0625" stroke-linecap="round" stroke-linejoin="round"/>
<path d="M234.697 150.196C236.515 149.265 238.183 148.07 239.646 146.65" stroke="#181925" stroke-width="1.0625" stroke-linecap="round" stroke-linejoin="round"/>
<path d="M258.64 161.574C258.64 161.574 256.727 163.639 254.824 163.137" stroke="#181925" stroke-width="1.0625" stroke-linecap="round" stroke-linejoin="round"/>
<path d="M213.118 176.307C213.118 176.307 210.001 176.937 209.624 177.869" stroke="#181925" stroke-width="1.0625" stroke-linecap="round" stroke-linejoin="round"/>
<path d="M198.309 113.676L193.388 117.981C190.69 118.814 188.168 120.13 185.947 121.865C181.697 124.972 170.65 133.28 170.65 133.28C169.335 133.706 167.983 134.012 166.612 134.194C164.772 134.395 162.795 135.765 163.19 136.387C163.586 137.008 165.287 135.72 165.701 135.784C166.115 135.848 165.315 139.805 165.858 140.719C166.4 141.633 167.237 140.381 167.237 140.381C167.383 140.499 167.552 140.583 167.734 140.628C167.916 140.672 168.106 140.677 168.29 140.64C168.474 140.603 168.647 140.527 168.797 140.415C168.948 140.304 169.072 140.161 169.16 139.997C169.16 139.997 170.429 140.253 170.65 139.156C170.65 139.156 171.57 139.577 171.855 138.471C172.022 137.812 172.24 137.167 172.508 136.542C172.508 136.542 192.799 127.403 195.771 123.702C195.771 123.702 198.364 122.788 198.806 121.609L202.669 118.584L198.309 113.676Z" fill="#F9F8F9" stroke="#181925" stroke-width="1.41667" stroke-linecap="round" stroke-linejoin="round"/>
<path d="M166.336 138.936C166.336 138.936 167.118 138.827 167.256 139.192C167.394 139.558 168.175 138.571 168.607 138.781C169.04 138.991 169.628 137.657 170.198 137.995" fill="#F9F8F9"/>
<path d="M166.336 138.936C166.336 138.936 167.118 138.827 167.256 139.192C167.394 139.558 168.175 138.571 168.607 138.781C169.04 138.991 169.628 137.657 170.198 137.995" stroke="#181925" stroke-width="1.0625" stroke-linecap="round" stroke-linejoin="round"/>
<path d="M270.856 94.6941C269.348 96.1564 261.336 115.184 255.716 113.338C251.874 112.01 248.136 110.403 244.531 108.531L247.401 101.137L256.038 105.707C256.038 105.707 256.203 103.395 267.343 93.4878C267.343 93.4878 266.027 89.8321 266.202 88.3424C266.377 86.8527 266 85.2717 266.855 85.2991C267.71 85.3265 267.49 87.9129 267.49 87.9129L267.683 88.708C267.683 88.708 269.67 88.8816 270.442 87.7301C271.024 86.9652 271.409 86.0713 271.565 85.1254C271.693 84.4217 272.42 83.1696 272.769 84.3486C272.769 84.3486 273.689 83.9465 273.689 85.2625C273.706 85.9703 273.679 86.6784 273.607 87.3828C273.607 87.3828 274.462 85.6738 274.784 86.0211C275.106 86.3683 274.14 88.3424 274.14 88.3424C274.14 88.3424 275.391 87.2549 275.501 87.7118C275.612 88.1688 274.223 89.4026 273.928 90.1977C273.215 91.8844 272.171 93.4129 270.856 94.6941Z" fill="#F9F8F9" stroke="#181925" stroke-width="1.41667" stroke-linecap="round" stroke-linejoin="round"/>
<path d="M224.018 97.1161C220.21 97.8381 208.17 100.306 209.356 104.51C210.469 108.43 216.623 127.211 215.344 138.325C215.308 138.62 215.335 138.92 215.421 139.205C215.508 139.49 215.653 139.755 215.847 139.981C216.042 140.208 216.281 140.392 216.551 140.522C216.821 140.652 217.114 140.726 217.414 140.737C225.647 141.049 233.882 140.193 241.872 138.197C243.034 137.908 244.046 137.199 244.711 136.209C245.376 135.219 245.646 134.018 245.469 132.841C244.604 127.211 243.344 116.957 244.153 108.924C245.368 97.2532 244.714 93.2045 224.018 97.1161Z" fill="#FB887A" stroke="#181925" stroke-width="1.41667" stroke-linecap="round" stroke-linejoin="round"/>
<path d="M237.033 99.8942C235.989 100.702 235.29 101.873 235.077 103.171C234.864 104.469 235.152 105.799 235.883 106.895" stroke="#181925" stroke-width="1.0625" stroke-linecap="round" stroke-linejoin="round"/>
<path d="M213.359 117.231C218.772 125.193 226.846 130.995 236.152 133.608" stroke="#181925" stroke-width="1.0625" stroke-linecap="round" stroke-linejoin="round"/>
<path d="M218.535 136.808C222.459 137.136 226.411 136.936 230.281 136.214" stroke="#181925" stroke-width="1.0625" stroke-linecap="round" stroke-linejoin="round"/>
<path d="M210.203 103.193L196.24 113.119C196.24 113.119 199.386 120.704 202.734 121.179L213.257 114.371" fill="#FB887A"/>
<path d="M210.203 103.193L196.24 113.119C196.24 113.119 199.386 120.704 202.734 121.179L213.257 114.371" stroke="#181925" stroke-width="1.41667" stroke-linecap="round" stroke-linejoin="round"/>
<path d="M237.798 97.6002C237.798 97.6002 245.156 98.8889 254.713 104.281C254.713 104.281 254.713 110.066 251.034 113.85L241.532 109.417" fill="#FB887A"/>
<path d="M237.798 97.6002C237.798 97.6002 245.156 98.8889 254.713 104.281C254.713 104.281 254.713 110.066 251.034 113.85L241.532 109.417" stroke="#181925" stroke-width="1.41667" stroke-linecap="round" stroke-linejoin="round"/>
<path d="M218.691 103.605L220.604 107.388L220.071 117.789C220.071 117.789 219.988 126.709 223.649 140.024L226.408 141.212L228.487 139.586C228.487 139.586 224.67 121.015 224.293 117.496L222.214 107.087L223.723 103.267L220.586 103.65L218.691 103.605Z" fill="#181925" stroke="#181925" stroke-width="1.41667" stroke-linecap="round" stroke-linejoin="round"/>
<path d="M223.273 98.8798C221.819 99.1631 219.17 99.6932 216.512 100.47C215.964 102.408 215.897 104.45 216.319 106.42C216.858 105.557 217.691 104.914 218.666 104.607C219.641 104.3 220.694 104.35 221.635 104.747C225.71 101.923 228.69 104.016 228.69 104.016C228.443 102.044 228.096 100.086 227.651 98.1487C226.299 98.3497 224.855 98.5874 223.273 98.8798Z" fill="#FB887A" stroke="#181925" stroke-width="1.0625" stroke-linecap="round" stroke-linejoin="round"/>
<path d="M224.58 94.959C224.58 94.959 225.573 98.048 226.659 98.2856C226.659 98.2856 225.26 103.723 220.045 102.672C214.83 101.621 221.498 96.7228 221.498 96.7228L224.58 94.959Z" fill="#F9F8F9" stroke="#181925" stroke-width="1.41667" stroke-linecap="round" stroke-linejoin="round"/>
<path d="M223.595 94.694C223.595 94.694 224.689 97.1616 226.299 96.8052C226.299 96.8052 225.076 92.5098 225.646 89.9051C226.216 87.3004 224.349 80.7111 218.131 82.5207C215.329 82.4412 212.577 83.2723 210.294 84.8877C206.716 87.5655 206.109 85.6006 206.109 85.6006C206.109 85.6006 205.373 88.7901 208.822 88.0133C208.822 88.0133 207.902 89.8411 206.311 89.4025C206.311 89.4025 207.507 91.0384 209.071 90.2433C209.071 90.2433 208.031 91.669 208.933 92.6377C208.933 92.6377 213.191 89.2471 215.693 89.8411C218.195 90.4352 223.595 94.694 223.595 94.694Z" fill="#181925" stroke="#181925" stroke-width="1.41667" stroke-linecap="round" stroke-linejoin="round"/>
<path d="M211.131 93.7801C211.131 93.7801 212.778 101.548 217.864 104.19C221.268 105.953 224.763 97.2255 224.708 96.0374C225.194 95.799 225.606 95.4344 225.901 94.9824C226.195 94.5303 226.362 94.0075 226.382 93.4693C226.465 91.5867 225.085 91.1297 223.963 92.0071C223.963 92.0071 223.503 93.3231 222.914 93.4053C222.325 93.4876 222.463 90.0787 221.783 89.7497C221.102 89.4207 219.492 89.2744 218.968 87.9218C218.444 86.5693 216.209 88.4702 213.311 88.8358C210.414 89.2013 210.598 91.8517 211.131 93.7801Z" fill="#F9F8F9" stroke="#181925" stroke-width="1.41667" stroke-linecap="round" stroke-linejoin="round"/>
<path d="M214.278 95.1967C214.327 95.7963 214.252 96.3994 214.059 96.9696C213.866 97.5398 213.559 98.0652 213.156 98.5142C212.393 99.3458 215.327 98.7975 215.548 99.3824" stroke="#181925" stroke-width="1.0625" stroke-linecap="round" stroke-linejoin="round"/>
<path d="M212.804 95.1603C212.905 95.5534 212.804 95.9099 212.675 95.9465C212.547 95.9831 212.289 95.6997 212.197 95.3066C212.105 94.9135 212.197 94.5478 212.326 94.5112C212.455 94.4747 212.712 94.7581 212.804 95.1603Z" fill="#181925"/>
<path d="M216.724 94.2098C216.816 94.6121 216.724 94.9595 216.595 95.0052C216.466 95.0509 216.209 94.7584 216.108 94.3561C216.007 93.9539 216.108 93.6065 216.237 93.5608C216.365 93.5151 216.623 93.7802 216.724 94.2098Z" fill="#181925"/>
<path d="M219.299 98.4777C219.409 99.574 216.77 100.305 216.77 100.305" stroke="#181925" stroke-width="1.0625" stroke-linecap="round" stroke-linejoin="round"/>
<path d="M211.131 93.7801C211.533 93.6282 211.968 93.5837 212.392 93.651C212.817 93.7183 213.216 93.8952 213.55 94.1638" stroke="#181925" stroke-width="1.0625" stroke-linecap="round" stroke-linejoin="round"/>
<path d="M215.06 93.4962C215.06 93.4962 215.676 91.1391 217.037 92.0527" stroke="#181925" stroke-width="1.0625" stroke-linecap="round" stroke-linejoin="round"/>
<path d="M268.639 90.1244C268.908 90.4032 269.098 90.7478 269.19 91.1232C269.282 91.4987 269.272 91.8916 269.163 92.2622" fill="#F9F8F9"/>
<path d="M268.639 90.1244C268.908 90.4032 269.098 90.7478 269.19 91.1232C269.282 91.4987 269.272 91.8916 269.163 92.2622" stroke="#181925" stroke-width="1.41667" stroke-linecap="round" stroke-linejoin="round"/>
<path d="M137.555 170.046L143.286 164.691C144.712 162.486 146.298 160.387 148.032 158.412C151.426 154.4 160.845 144.841 160.845 144.841C161.369 143.56 161.775 142.236 162.06 140.883C162.372 139.101 163.899 137.228 164.479 137.63C165.058 138.032 163.678 139.668 163.706 140.088C163.734 140.509 167.781 139.96 168.655 140.563C169.529 141.167 168.241 141.898 168.241 141.898C168.35 142.05 168.423 142.224 168.456 142.408C168.489 142.591 168.481 142.78 168.432 142.96C168.382 143.14 168.294 143.307 168.171 143.449C168.049 143.591 167.897 143.704 167.726 143.78C167.726 143.78 167.9 145.06 166.806 145.206C166.806 145.206 167.174 146.12 166.033 146.358C165.365 146.486 164.707 146.663 164.065 146.888C164.065 146.888 153.202 165.559 149.348 168.273L142.191 176.773L137.555 170.046Z" fill="#C2C4CD" stroke="#181925" stroke-width="1.41667" stroke-linecap="round" stroke-linejoin="round"/>
<path d="M127.592 178.592C127.592 178.592 135.548 170.595 139.458 167.625C139.458 167.625 144.121 172.989 143.956 177.678C143.956 177.678 137.774 184.779 134.702 185.455" fill="#F9F8F9"/>
<path d="M127.592 178.592C127.592 178.592 135.548 170.595 139.458 167.625C139.458 167.625 144.121 172.989 143.956 177.678C143.956 177.678 137.774 184.779 134.702 185.455" stroke="#181925" stroke-width="1.41667" stroke-linecap="round" stroke-linejoin="round"/>
<path d="M145.115 223.712C147.085 224.997 148.674 226.783 149.714 228.885C150.956 231.626 149.714 232.778 151.554 234.469C153.66 236.397 166.271 226.362 165.673 224.653C165.075 222.944 162.536 224.964 159.556 225.567C157.957 225.925 156.328 226.133 154.69 226.188L151.075 220.111L145.115 223.712Z" fill="#181925" stroke="#181925" stroke-width="1.41667" stroke-linecap="round" stroke-linejoin="round"/>
<path d="M123.949 215.788C123.949 215.788 131.666 212.553 134.49 204.912C134.49 204.912 132.292 212.388 147.368 227.047C147.368 227.047 151.967 226.426 153.669 222.368C153.669 222.368 140.405 191.661 135.723 191.816C131.041 191.971 113.647 206.676 113.647 206.676C113.647 206.676 115.284 217.159 123.949 215.788Z" fill="#FB887A" stroke="#181925" stroke-width="1.41667" stroke-linecap="round" stroke-linejoin="round"/>
<path opacity="0.2" d="M137.554 210.012C136.092 206.274 136.828 194.567 134.464 200.992C132.1 207.416 126.489 206.749 126.489 206.749L124.594 209.427L126.875 214.134C130.319 211.924 132.982 208.7 134.491 204.912C134.491 204.912 132.293 212.388 147.369 227.047C149.216 226.717 150.917 225.834 152.244 224.516C147.24 225.942 139.026 213.741 137.554 210.012Z" fill="#09090D"/>
<path d="M135.722 198.981C135.722 198.981 134.702 199.539 134.987 203.001" stroke="#181925" stroke-width="1.0625" stroke-linecap="round" stroke-linejoin="round"/>
<path d="M143.451 279.662L144.04 283.409C148.39 287.85 153.449 286.324 153.689 288.317C153.928 290.309 146.863 289.952 144.159 289.952C141.455 289.952 136.745 290.866 135.798 289.249C135.329 288.435 136.653 286.333 137.15 284.432C137.453 283.263 137.516 282.044 137.334 280.85L143.451 279.662Z" fill="#181925" stroke="#181925" stroke-width="1.41667" stroke-linecap="round" stroke-linejoin="round"/>
<path d="M126.489 157.827C126.489 157.827 130.417 154.555 129 153.258C127.584 151.96 125.836 154.309 125.836 154.309C125.836 154.309 127.234 150.105 125.238 149.52C123.242 148.935 123.003 153.175 123.003 153.175C123.003 153.175 122.884 149.447 120.878 149.52C118.873 149.593 120.878 152.134 117.466 154.363C114.053 156.593 109.822 159.28 113.115 163.018C113.115 163.018 111.119 165.358 115.12 167.926C119.121 170.494 120.115 171.353 120.639 174.259L125.238 169.918L125.836 161.145L126.489 157.827Z" fill="#181925" stroke="#181925" stroke-width="1.41667" stroke-linecap="round" stroke-linejoin="round"/>
<path d="M134.989 165.98L141.115 161.09C142.711 159 144.461 157.03 146.348 155.195C150.028 151.457 160.146 142.647 160.146 142.647C160.768 141.413 161.276 140.125 161.664 138.8C162.114 137.054 163.761 135.272 164.331 135.747C164.901 136.223 163.411 137.721 163.411 138.133C163.411 138.544 167.477 138.325 168.305 138.992C169.133 139.659 167.78 140.289 167.78 140.289C167.876 140.449 167.934 140.627 167.952 140.811C167.971 140.995 167.948 141.181 167.885 141.356C167.823 141.53 167.723 141.689 167.592 141.82C167.461 141.952 167.302 142.053 167.127 142.117C167.127 142.117 167.201 143.406 166.079 143.47C166.079 143.47 166.373 144.384 165.214 144.557C164.537 144.631 163.867 144.756 163.209 144.932C163.209 144.932 150.92 162.68 146.827 165.066L139.027 172.98L134.989 165.98Z" fill="#C2C4CD" stroke="#181925" stroke-width="1.41667" stroke-linecap="round" stroke-linejoin="round"/>
<path d="M103.898 210.99C103.898 210.99 100.605 217.689 108.294 224.397C115.984 231.105 130.103 246.532 131.042 251.522C131.98 256.512 136.377 282.239 136.377 282.239C136.377 282.239 141.399 283.637 144.655 281.142C144.655 281.142 144.968 256.393 142.3 246.633C139.633 236.872 129.892 224.891 127.086 217.068C126.732 215.425 126.519 213.756 126.452 212.078L103.898 210.99Z" fill="#FB887A" stroke="#181925" stroke-width="1.41667" stroke-linecap="round" stroke-linejoin="round"/>
<path opacity="0.2" d="M134.942 249.338C135.401 246.742 120.666 226.216 115.984 226.216C114.089 226.216 110.934 225.302 108.312 224.388C116.002 231.096 130.103 246.514 131.041 251.495C131.98 256.476 136.376 282.212 136.376 282.212C137.597 282.512 138.855 282.638 140.111 282.586C136.22 281.672 134.472 251.933 134.942 249.338Z" fill="#09090D"/>
<path d="M135.722 247.94C135.029 247.775 134.302 247.82 133.635 248.069C132.968 248.318 132.392 248.76 131.98 249.337" stroke="#181925" stroke-width="1.0625" stroke-linecap="round" stroke-linejoin="round"/>
<path d="M128.06 158.175L130.176 161.575C130.176 161.575 133.221 162.041 133.644 162.973C134.067 163.905 131.942 164.49 131.942 164.49C131.942 164.49 134.886 167.881 134.416 169.06C133.947 170.239 129.817 172.45 129.817 172.45L120.757 173.008C120.757 173.008 122.284 170.467 121.576 168.712C121.576 168.712 118.163 168.922 118.522 165.596C118.881 162.269 121.226 164.856 121.226 164.856C121.541 164.682 121.785 164.404 121.914 164.069C122.044 163.735 122.051 163.367 121.934 163.028C121.576 161.629 122.753 161.045 122.854 159.875C122.955 158.705 125.972 154.784 128.06 158.175Z" fill="#C2C4CD" stroke="#181925" stroke-width="1.41667" stroke-linecap="round" stroke-linejoin="round"/>
<path d="M129.119 161.593C129.367 162.013 129.367 162.506 129.119 162.598C128.871 162.689 128.494 162.506 128.246 162.086C127.997 161.666 127.997 161.172 128.246 161.081C128.494 160.99 128.88 161.181 129.119 161.593Z" fill="#181925"/>
<path d="M127.591 159.82C127.591 159.82 124.648 158.531 124.529 159.82" stroke="#181925" stroke-width="1.0625" stroke-linecap="round" stroke-linejoin="round"/>
<path d="M118.531 176.033V172.377C118.531 172.377 135.088 168.721 132.945 174.598L131.234 176.033H118.531Z" fill="#F9F8F9" stroke="#181925" stroke-width="1.41667" stroke-linecap="round" stroke-linejoin="round"/>
<path d="M102.637 213.915C103.922 203.308 106.946 192.981 111.587 183.344C119.121 168.146 135.071 173.072 135.595 177.541C136.515 185.473 131.916 192.648 129.598 202.271C128.062 208.596 128.935 213.704 126.884 213.979C121.706 214.655 102.637 213.915 102.637 213.915Z" fill="#F9F8F9" stroke="#181925" stroke-width="1.41667" stroke-linecap="round" stroke-linejoin="round"/>
<path d="M125.238 174.077C125.238 174.077 133.121 165.98 137.012 162.973C137.012 162.973 141.721 168.301 141.611 173.026C141.611 173.026 135.494 180.191 132.413 180.886" fill="#F9F8F9"/>
<path d="M125.238 174.077C125.238 174.077 133.121 165.98 137.012 162.973C137.012 162.973 141.721 168.301 141.611 173.026C141.611 173.026 135.494 180.191 132.413 180.886" stroke="#181925" stroke-width="1.41667" stroke-linecap="round" stroke-linejoin="round"/>
<path d="M131.943 184.834C127.236 191.504 121.434 197.34 114.779 202.098" stroke="#181925" stroke-width="1.0625" stroke-linecap="round" stroke-linejoin="round"/>
<path d="M125.137 196.778C121.447 202.543 116.299 207.245 110.208 210.414C110.3 210.231 110.383 210.049 110.475 209.857" stroke="#181925" stroke-width="1.0625" stroke-linecap="round" stroke-linejoin="round"/>
<path d="M99.6748 215.687C100.237 214.974 100.61 214.132 100.76 213.238C100.843 212.068 100.503 205.269 101.34 205.47C102.177 205.671 102.131 208.669 102.131 208.669C102.131 208.669 104.43 202.5 104.89 202.728C105.35 202.957 104.78 204.775 104.78 204.775C104.78 204.775 105.92 202.728 106.344 202.947C106.767 203.167 105.801 205.927 105.801 205.927C105.801 205.927 107.024 204.428 107.447 204.602C107.87 204.775 106.371 208.257 106.371 208.257C106.371 208.257 107.944 206.429 108.386 206.795C108.827 207.161 106.757 209.381 106.39 210.688C105.815 212.374 104.872 213.912 103.63 215.194L102.949 218.63L99.6748 215.687Z" fill="#F9F8F9" stroke="#181925" stroke-width="1.41667" stroke-linecap="round" stroke-linejoin="round"/>
<path d="M65.4567 244.275C65.4567 244.275 68.5473 241.579 78.7574 239.925C80.207 239.701 81.5489 239.029 82.5931 238.005C84.8835 235.748 88.1121 232.76 89.8965 230.868C92.3709 228.172 93.0975 226.609 99.0948 213.878C100.381 214.07 101.569 214.674 102.479 215.598C103.388 216.521 103.97 217.714 104.135 218.996C104.135 218.996 98.8465 231.617 95.9214 235.675C92.9963 239.733 80.2843 249.018 80.2843 249.018" fill="#FB887A"/>
<path d="M65.4567 244.275C65.4567 244.275 68.5473 241.579 78.7574 239.925C80.207 239.701 81.5489 239.029 82.5931 238.005C84.8835 235.748 88.1121 232.76 89.8965 230.868C92.3709 228.172 93.0975 226.609 99.0948 213.878C100.381 214.07 101.569 214.674 102.479 215.598C103.388 216.521 103.97 217.714 104.135 218.996C104.135 218.996 98.8465 231.617 95.9214 235.675C92.9963 239.733 80.2843 249.018 80.2843 249.018" stroke="#181925" stroke-width="1.41667" stroke-linecap="round" stroke-linejoin="round"/>
<path d="M64.3344 234.386L66.4132 226.399L73.7994 229.442L73.0727 236.086L64.3344 234.386Z" fill="#F9F8F9" stroke="#181925" stroke-width="1.41667" stroke-linecap="round" stroke-linejoin="round"/>
<path d="M65.053 232.367C65.053 232.367 67.8125 227.349 67.8125 226.143C67.8125 226.143 71.1331 224.461 70.572 221.802C70.0109 219.142 69.5694 217.488 69.5694 217.488L70.4892 215.962C70.4892 215.962 73.6902 215.267 72.7152 213.22C71.7402 211.173 67.0491 214.024 63.8664 214.582C60.6838 215.139 56.3606 216.51 57.7588 219.709L57.446 220.541C57.446 220.541 54.4014 227.358 65.053 232.367Z" fill="#181925" stroke="#181925" stroke-width="1.41667" stroke-linecap="round" stroke-linejoin="round"/>
<path d="M62.5854 237.201L63.6984 232.952C63.6984 232.952 70.8731 233.143 74.2857 236.26V239.623L62.5854 237.201Z" fill="#FB887A" stroke="#181925" stroke-width="1.41667" stroke-linecap="round" stroke-linejoin="round"/>
<path d="M68.3816 228.491C68.3816 228.491 71.3894 232.951 75.8046 231.315C78.9228 230.146 76.2369 225.832 76.2369 225.832C76.2369 225.832 77.7363 225.147 77.6719 224.297C77.6075 223.447 75.1515 221.619 75.1515 221.619C75.1515 221.619 74.71 218.786 73.873 218.219L70.5064 215.98C70.5064 215.98 66.8271 215.852 66.6983 216.528C66.5695 217.205 68.9427 219.535 68.9427 219.535C68.9427 219.535 69.1819 224.507 68.5472 224.827C67.9125 225.147 66.2292 224.662 66.2292 224.662C66.2292 224.662 62.973 223.374 63.5249 226.17C64.0768 228.967 67.103 229.853 68.3816 228.491Z" fill="#F9F8F9" stroke="#181925" stroke-width="1.41667" stroke-linecap="round" stroke-linejoin="round"/>
<path d="M74.2029 222.076C74.3591 222.496 74.3407 222.898 74.2029 222.989C74.0652 223.081 73.7438 222.77 73.5877 222.35C73.4316 221.93 73.4407 221.528 73.5877 221.436C73.7346 221.345 74.0376 221.655 74.2029 222.076Z" fill="#181925"/>
<path d="M71.7661 220.294C71.962 220.05 72.2443 219.889 72.5554 219.845C72.8665 219.8 73.1828 219.876 73.4396 220.057" stroke="#181925" stroke-width="1.0625" stroke-linecap="round" stroke-linejoin="round"/>
<path d="M74.4606 227.368C74.4606 227.368 75.6283 227.8 76.1892 227.276" stroke="#181925" stroke-width="1.0625" stroke-linecap="round" stroke-linejoin="round"/>
<path d="M87.9373 337.851L88.526 341.598C92.8768 346.04 97.9359 344.522 98.175 346.506C98.4142 348.489 91.3499 348.142 88.6364 348.142C85.9229 348.142 81.2226 349.055 80.2844 347.447C79.8152 346.624 81.1398 344.522 81.6365 342.631C81.9396 341.458 81.999 340.236 81.8113 339.039L87.9373 337.851Z" fill="#181925" stroke="#181925" stroke-width="1.41667" stroke-linecap="round" stroke-linejoin="round"/>
<path d="M43.1875 337.851L40.9523 341.598C45.3031 346.04 50.3621 344.522 50.6013 346.506C50.8404 348.489 43.7761 348.142 41.0718 348.142C38.3675 348.142 33.658 349.055 32.7106 347.447C32.2415 346.624 36.1232 339.039 36.1232 339.039L43.1875 337.851Z" fill="#181925" stroke="#181925" stroke-width="1.41667" stroke-linecap="round" stroke-linejoin="round"/>
<path d="M82.7404 272.085C82.7404 272.085 83.3658 277.029 82.7404 278.921C82.7404 278.921 92.003 299.21 92.3158 308.258C92.371 309.912 89.0136 339.88 89.0136 339.88C89.0136 339.88 86.3461 342.036 81.1675 339.88C81.1675 339.88 80.2476 318.384 81.4894 309.812C81.4894 309.812 75.0506 294.275 73.2109 289.477C71.3713 284.679 70.6262 274.589 70.6262 274.589L82.7404 272.085Z" fill="#C2C4CD" stroke="#181925" stroke-width="1.41667" stroke-linecap="round" stroke-linejoin="round"/>
<path opacity="0.3" d="M73.1559 289.477C74.9956 294.239 81.4344 309.812 81.4344 309.812C80.1742 318.384 81.1125 339.88 81.1125 339.88C86.2911 342.037 88.9586 339.88 88.9586 339.88C88.9586 339.88 89.0506 339.121 89.1886 337.851C89.1886 337.851 82.9521 342 82.3082 335.292C81.6644 328.584 84.525 314.272 84.8562 310.095C85.1873 305.919 78.0126 298.041 80.1466 292.237C82.2806 286.434 82.6854 272.131 82.6854 272.131L70.5344 274.635C70.5344 274.635 71.2703 284.716 73.1559 289.477Z" fill="#09090D"/>
<path d="M86.6324 308.596C86.6324 308.596 87.8738 311.428 89.8875 311.593" stroke="#181925" stroke-width="1.0625" stroke-linecap="round" stroke-linejoin="round"/>
<path d="M81.4702 285.456C80.0987 288.028 78.2621 290.326 76.0524 292.237" stroke="#181925" stroke-width="1.0625" stroke-linecap="round" stroke-linejoin="round"/>
<path d="M81.4697 273.877C81.4697 273.877 80.2923 284.405 74.8745 291.652C69.4567 298.9 64.5172 312.928 60.286 316.209C56.0548 319.49 43.3336 339.825 43.3336 339.825C43.3336 339.825 37.8146 343.746 34.3928 339.359C34.3928 339.359 44.9893 318.074 51.5752 309.894C51.5752 309.894 58.1612 294.083 60.286 289.477C60.286 289.477 58.8695 283.235 63.579 275.047L81.4697 273.877Z" fill="#C2C4CD" stroke="#181925" stroke-width="1.41667" stroke-linecap="round" stroke-linejoin="round"/>
<path opacity="0.3" d="M38.2757 339.194C37.963 333.427 47.3728 321.885 53.9128 308.596C60.4528 295.308 68.998 293.206 64.4449 292.237C63.4927 291.995 62.6088 291.54 61.8611 290.906C61.1133 290.273 60.5215 289.477 60.1309 288.581C60.1555 288.888 60.1985 289.194 60.2596 289.495C58.1348 294.065 51.5489 309.912 51.5489 309.912C44.9629 318.092 34.3665 339.377 34.3665 339.377C34.7574 339.908 35.2506 340.357 35.8174 340.697C36.3843 341.038 37.0135 341.263 37.6686 341.36C37.9213 341.064 38.1064 340.717 38.2112 340.343C38.316 339.969 38.338 339.577 38.2757 339.194Z" fill="#09090D"/>
<path d="M53.2227 310.708C53.2227 310.708 52.5144 314.098 54.7496 315.624" stroke="#181925" stroke-width="1.0625" stroke-linecap="round" stroke-linejoin="round"/>
<path d="M64.9685 277.998C64.5364 277.96 64.1172 277.833 63.7381 277.623C63.359 277.413 63.0285 277.127 62.7682 276.782C62.508 276.437 62.3236 276.042 62.2273 275.622C62.131 275.201 62.1247 274.766 62.2091 274.343C62.4414 273.264 62.4414 272.149 62.2091 271.071C60.3142 261.648 54.7125 244.503 58.4102 239.504C63.5888 232.485 74.176 235.995 77.7266 241.14C80.9368 245.819 84.9288 264.619 84.9196 273.082C84.9141 273.734 84.7 274.368 84.3082 274.892C83.9163 275.416 83.3671 275.803 82.7396 275.997C77.0005 277.793 70.9667 278.473 64.9685 277.998Z" fill="#FB887A" stroke="#181925" stroke-width="1.41667" stroke-linecap="round" stroke-linejoin="round"/>
<path d="M99.8212 214.417C100.477 213.784 100.963 212.999 101.238 212.132C101.477 210.99 102.075 204.209 102.875 204.519C103.675 204.83 103.225 207.791 103.225 207.791C103.225 207.791 106.334 201.988 106.729 202.308C107.125 202.628 106.334 204.318 106.334 204.318C106.334 204.318 107.75 202.491 108.173 202.683C108.596 202.874 107.253 205.561 107.253 205.561C107.253 205.561 108.67 204.236 109.093 204.474C109.516 204.711 107.529 207.983 107.529 207.983C107.529 207.983 109.369 206.42 109.728 206.813C110.086 207.206 107.759 209.144 107.217 210.396C106.427 211.985 105.297 213.382 103.905 214.49L102.755 217.799L99.8212 214.417Z" fill="#F9F8F9" stroke="#181925" stroke-width="1.41667" stroke-linecap="round" stroke-linejoin="round"/>
<path d="M62.0077 238.097C62.0077 238.097 65.4479 235.849 75.8051 235.593C77.2729 235.562 78.6943 235.076 79.8708 234.204C82.4463 232.275 86.098 229.762 88.0757 228.126C90.8995 225.786 91.8377 224.333 99.5275 212.535C100.777 212.897 101.873 213.654 102.65 214.691C103.427 215.729 103.842 216.99 103.832 218.283C103.832 218.283 96.86 230.073 93.4107 233.692C89.9613 237.311 76.0719 244.805 76.0719 244.805" fill="#FB887A"/>
<path d="M62.0077 238.097C62.0077 238.097 65.4479 235.849 75.8051 235.593C77.2729 235.562 78.6943 235.076 79.8708 234.204C82.4463 232.275 86.098 229.762 88.0757 228.126C90.8995 225.786 91.8378 224.333 99.5275 212.535C100.777 212.897 101.873 213.654 102.65 214.691C103.427 215.729 103.842 216.99 103.832 218.283C103.832 218.283 96.86 230.073 93.4107 233.692C89.9613 237.311 76.0719 244.805 76.0719 244.805" stroke="#181925" stroke-width="1.41667" stroke-linecap="round" stroke-linejoin="round"/>
<path d="M77.1386 246.139C75.6789 249.837 73.0726 252.977 69.6971 255.105" stroke="#181925" stroke-width="1.0625" stroke-linecap="round" stroke-linejoin="round"/>
<path d="M64.1413 262.855L62.1268 273.191" stroke="#181925" stroke-width="1.0625" stroke-linecap="round" stroke-linejoin="round"/>
<path d="M81.6542 311.201C81.9167 312.666 82.4948 314.058 83.349 315.28C84.2031 316.503 85.3131 317.527 86.6029 318.284" stroke="#181925" stroke-width="1.0625" stroke-linecap="round" stroke-linejoin="round"/>
<path d="M142.687 247.858C142.346 249.859 142.015 251.86 141.675 253.853" stroke="#181925" stroke-width="1.0625" stroke-linecap="round" stroke-linejoin="round"/>
</svg>
