<svg id="Layer_1" data-name="Layer 1" xmlns="http://www.w3.org/2000/svg" viewBox="0 0 239 60"><defs><style>.cls-1{fill:#003a70;}.cls-2{fill:#ef3340;}</style></defs><path class="cls-1" d="M920,547.33a10.81,10.81,0,0,1,11.11-10.83c5.85,0,11.16,4.31,11.16,10.83s-5.31,10.79-11.16,10.79A10.81,10.81,0,0,1,920,547.33Zm15.64,0a4.53,4.53,0,1,0-4.53,4.75A4.56,4.56,0,0,0,935.65,547.33Z" transform="translate(-840.86 -510.08)"/><path class="cls-1" d="M944.63,557.59V530.11h6.51v27.48Z" transform="translate(-840.86 -510.08)"/><polygon class="cls-1" points="69.88 20.03 69.88 30.68 59.94 30.68 59.94 20.03 53.02 20.03 53.02 47.51 59.94 47.51 59.94 36.86 69.88 36.86 69.88 47.51 76.79 47.51 76.79 20.03 69.88 20.03"/><path class="cls-1" d="M969.79,537h6.5v20.56h-6.5V555a8.12,8.12,0,0,1-6.51,3.13c-5.75,0-9.8-4.36-9.8-10.79s4-10.83,9.89-10.83a8.1,8.1,0,0,1,6.42,3Zm-.22,10.3a4.74,4.74,0,0,0-4.75-4.8,4.78,4.78,0,0,0,0,9.55A4.78,4.78,0,0,0,969.57,547.33Z" transform="translate(-840.86 -510.08)"/><path class="cls-1" d="M1012.8,546.54v11.05h-6.5V546.71c0-3.17-1.59-4.18-3.26-4.18-2,0-3.51,1.41-3.51,5v10H993V546.84c0-3.17-1.59-4.31-3.21-4.31s-3.56.88-3.56,4.31v10.75h-6.5V537h6.5v4c.4-3.12,3.47-4.53,5.54-4.53a6.88,6.88,0,0,1,6.5,3.92,7.86,7.86,0,0,1,6.72-3.92C1010.16,536.5,1012.8,540.24,1012.8,546.54Z" transform="translate(-840.86 -510.08)"/><path class="cls-1" d="M1039.07,547.28c0,6.65-4.83,10.84-10,10.84a8.15,8.15,0,0,1-6.33-2.82v2.29h-6.5V530.11h6.5v9.16a8.23,8.23,0,0,1,6.33-2.77C1034.24,536.5,1039.07,540.64,1039.07,547.28Zm-6.59,0a4.75,4.75,0,1,0-4.75,4.8A4.82,4.82,0,0,0,1032.48,547.28Z" transform="translate(-840.86 -510.08)"/><path class="cls-1" d="M1057.06,537.11l-1.54,6.21a5.37,5.37,0,0,0-2.94-.79c-2.55,0-4.66,2.16-4.66,8.23v6.83h-6.5V537h6.41v4.36c1.19-3.39,3.65-4.89,6.16-4.89A6.71,6.71,0,0,1,1057.06,537.11Z" transform="translate(-840.86 -510.08)"/><path class="cls-1" d="M1073.36,537h6.5v20.56h-6.5V555a8.08,8.08,0,0,1-6.5,3.13c-5.76,0-9.8-4.36-9.8-10.79s4-10.83,9.89-10.83a8.06,8.06,0,0,1,6.41,3Zm-.22,10.3a4.74,4.74,0,0,0-4.74-4.8,4.78,4.78,0,0,0,0,9.55A4.77,4.77,0,0,0,1073.14,547.33Z" transform="translate(-840.86 -510.08)"/><path class="cls-2" d="M947.48,570.08a2.95,2.95,0,1,1,2-5.13l-.34.64a2.26,2.26,0,0,0-1.65-.69,2.22,2.22,0,0,0,0,4.44,2.27,2.27,0,0,0,1.7-.69l.34.58A2.65,2.65,0,0,1,947.48,570.08Z" transform="translate(-840.86 -510.08)"/><path class="cls-2" d="M953.41,570.08a2.95,2.95,0,1,1,2.93-3A2.84,2.84,0,0,1,953.41,570.08Zm0-5.19a2.23,2.23,0,1,0,2.11,2.23A2.08,2.08,0,0,0,953.41,564.89Z" transform="translate(-840.86 -510.08)"/><path class="cls-2" d="M960.55,570.08a2.95,2.95,0,1,1,2.93-3A2.84,2.84,0,0,1,960.55,570.08Zm0-5.19a2.23,2.23,0,1,0,2.11,2.23A2.08,2.08,0,0,0,960.55,564.89Z" transform="translate(-840.86 -510.08)"/><path class="cls-2" d="M966.67,567.53h-.8V570h-.8v-5.7h1.6a2.06,2.06,0,0,1,1.38.4,1.52,1.52,0,0,1,.55,1.22C968.6,567.05,967.71,567.53,966.67,567.53Zm-.07-2.6h-.73v2h.73c.64,0,1.17-.26,1.17-1S967.24,564.93,966.6,564.93Z" transform="translate(-840.86 -510.08)"/><path class="cls-2" d="M970.11,570v-5.7h3.33V565h-2.53v1.7h2.39v.67h-2.39v2h2.59V570Z" transform="translate(-840.86 -510.08)"/><path class="cls-2" d="M978,570l-1.49-2.46h-.61V570h-.8v-5.7h1.61c1,0,1.92.47,1.92,1.6a1.51,1.51,0,0,1-1.29,1.56L979,570Zm-.55-4.84a1.53,1.53,0,0,0-1-.21h-.59v1.93h.59a1.53,1.53,0,0,0,1-.2.87.87,0,0,0,.36-.76A.86.86,0,0,0,977.49,565.14Z" transform="translate(-840.86 -510.08)"/><path class="cls-2" d="M984.13,570l-.59-1.49H981.1l-.58,1.49h-.84l2.32-5.72h.7L985,570Zm-1.81-4.72-1,2.56h2Z" transform="translate(-840.86 -510.08)"/><path class="cls-2" d="M987.5,565v5h-.8v-5h-1.61v-.67h4V565Z" transform="translate(-840.86 -510.08)"/><path class="cls-2" d="M990.45,570v-5.7h.8V570Z" transform="translate(-840.86 -510.08)"/><path class="cls-2" d="M995.35,570h-.71l-2.09-5.7h.85l1.6,4.54,1.6-4.54h.84Z" transform="translate(-840.86 -510.08)"/><path class="cls-2" d="M1002.2,570l-.58-1.49h-2.44l-.59,1.49h-.84l2.32-5.72h.7l2.32,5.72Zm-1.8-4.72-1,2.56h2Z" transform="translate(-840.86 -510.08)"/><path class="cls-2" d="M1010.53,570l-.59-1.49h-2.44l-.58,1.49h-.84l2.31-5.72h.7l2.33,5.72Zm-1.81-4.72-1,2.56h2Z" transform="translate(-840.86 -510.08)"/><path class="cls-2" d="M1015.13,570.08a2.95,2.95,0,1,1,2.3-4.89l-.55.5a2.17,2.17,0,0,0-1.75-.81,2.05,2.05,0,0,0-2.07,2.25,2.08,2.08,0,0,0,2.12,2.24,2.05,2.05,0,0,0,1.6-.52v-1.26h-1.54v-.65h2.31v2.21A3.09,3.09,0,0,1,1015.13,570.08Z" transform="translate(-840.86 -510.08)"/><path class="cls-2" d="M1022.18,570l-1.48-2.46h-.61V570h-.8v-5.7h1.61c1,0,1.92.47,1.92,1.6a1.51,1.51,0,0,1-1.3,1.56l1.63,2.54Zm-.55-4.84a1.51,1.51,0,0,0-1-.21h-.58v1.93h.58a1.51,1.51,0,0,0,1-.2.84.84,0,0,0,.36-.76A.83.83,0,0,0,1021.63,565.14Z" transform="translate(-840.86 -510.08)"/><path class="cls-2" d="M1027,570.08a2.95,2.95,0,1,1,2.94-3A2.83,2.83,0,0,1,1027,570.08Zm0-5.19a2.23,2.23,0,1,0,2.12,2.23A2.08,2.08,0,0,0,1027,564.89Z" transform="translate(-840.86 -510.08)"/><path class="cls-2" d="M1031.54,570v-5.7h.8V570Z" transform="translate(-840.86 -510.08)"/><path class="cls-2" d="M1038.31,570l-3.28-4.55s0,.77,0,1.51v3h-.79v-5.7h.84l3.23,4.47s0-.7,0-1.45v-3h.78V570Z" transform="translate(-840.86 -510.08)"/><path class="cls-2" d="M1042.73,570H1041v-5.7h1.72a2.85,2.85,0,1,1,0,5.7Zm0-5h-.92v4.32h.92a2.16,2.16,0,1,0,0-4.32Z" transform="translate(-840.86 -510.08)"/><path class="cls-2" d="M1051.16,569.38a2.15,2.15,0,0,1-1.71.7,2.12,2.12,0,0,1-1.7-.7,2.45,2.45,0,0,1-.46-1.73v-3.37h.8v3.29a2.06,2.06,0,0,0,.27,1.28,1.28,1.28,0,0,0,1.09.51,1.3,1.3,0,0,0,1.1-.51,2.08,2.08,0,0,0,.26-1.28v-3.29h.8v3.37A2.49,2.49,0,0,1,1051.16,569.38Z" transform="translate(-840.86 -510.08)"/><path class="cls-2" d="M1054.94,570.08a2.39,2.39,0,0,1-1.84-1l.47-.54a1.91,1.91,0,0,0,1.44.82,1,1,0,0,0,1.11-1c0-.59-.63-.83-.92-.94s-.69-.27-.91-.38a1.48,1.48,0,0,1-.94-1.4,1.65,1.65,0,0,1,1.83-1.52,2.23,2.23,0,0,1,1.64.74l-.42.54a1.79,1.79,0,0,0-1.26-.61c-.56,0-1,.27-1,.79s.39.73.74.87l1,.44a1.52,1.52,0,0,1,1,1.42A1.8,1.8,0,0,1,1054.94,570.08Z" transform="translate(-840.86 -510.08)"/><path class="cls-2" d="M1060.26,565v5h-.8v-5h-1.61v-.67h4V565Z" transform="translate(-840.86 -510.08)"/><path class="cls-2" d="M1066.11,570l-1.49-2.46H1064V570h-.8v-5.7h1.61c1,0,1.92.47,1.92,1.6a1.51,1.51,0,0,1-1.29,1.56l1.62,2.54Zm-.56-4.84a1.5,1.5,0,0,0-1-.21H1064v1.93h.59a1.5,1.5,0,0,0,1-.2.85.85,0,0,0,.37-.76A.84.84,0,0,0,1065.55,565.14Z" transform="translate(-840.86 -510.08)"/><path class="cls-2" d="M1068.32,570v-5.7h.8V570Z" transform="translate(-840.86 -510.08)"/><path class="cls-2" d="M1074.87,570l-.59-1.49h-2.44l-.58,1.49h-.84l2.31-5.72h.7l2.33,5.72Zm-1.81-4.72-1,2.56h2Z" transform="translate(-840.86 -510.08)"/><path class="cls-2" d="M1077.06,570v-5.7h.8v5h2V570Z" transform="translate(-840.86 -510.08)"/><path class="cls-2" d="M880.8,556.13l3.93-4.62a.42.42,0,0,0,0-.5l-11.81-15.79a.34.34,0,0,0-.54,0l-1,1a1.29,1.29,0,0,1-1.95-.16L868,534l11.42-11.61a.43.43,0,0,0,0-.57l-3.65-5.29a.42.42,0,0,0-.62-.06l-10.46,9.88a.25.25,0,0,0,0,.33l1.67,2.31a1.44,1.44,0,0,1-.05,1.78l-.41.43-15.5-20.91a.47.47,0,0,0-.66-.1L844.63,514a.5.5,0,0,0-.1.71L856,529.72a.45.45,0,0,1,0,.53c-.41.51-1.38,1.74-2.58,3.22-.93,1.17-2,2.49-3,3.76a.68.68,0,0,0,.22,1l.27.13a1.51,1.51,0,0,1,.79,1.68c-.33,1.49-1,4.28-2,7.48-.16.51-.33,1-.5,1.55a56.67,56.67,0,0,1-4,9.62,5.73,5.73,0,0,1-4,2.86h-.05a.24.24,0,0,0,.05.47c.6,0,1.2,0,1.81-.05a91.28,91.28,0,0,1,15.68,1.14q2.55.39,5.15.93c1.39.29,2.77.61,4.12.95,1.1.28,2.2.57,3.27.88l.44.12a75,75,0,0,1,8.32,3l1.87.8a.22.22,0,0,0,.2-.4h0a6.15,6.15,0,0,1-2.51-3l-2.61-6.61a1.21,1.21,0,0,0-.66-.67l-1.19-.48A84.1,84.1,0,0,1,870.24,543l9.75,13.1A.51.51,0,0,0,880.8,556.13Zm-6.93,3.68,1.79.66,2.37,6.62s-4.35-1.84-6.21-2.47h0l-1.44-6-1.75.82-.53,2.32a1.66,1.66,0,0,1-2,1.23c-.85-.21-1.71-.41-2.59-.59s-1.61-.32-2.41-.46c.11-5.68.31-11.74.41-14.53l4.74-5a1,1,0,0,0,0-1.4l-1.58-1.81a1.72,1.72,0,0,1-.42-1.19,1.74,1.74,0,0,1,.48-1.12l0,0,.62-.62,1.08,1.47,2,2.63v0a9.94,9.94,0,0,1,.41,1.49A119.84,119.84,0,0,0,873.87,559.81Zm-8-24.74a.42.42,0,0,0-.62-.06L864,536.17a2.74,2.74,0,0,0-.1,3.72l1.58,1.82-11.38,11.91,0,0-4.07-5,14.66-14.46a.5.5,0,0,0,.06-.65L862.91,531a2.56,2.56,0,0,0-3.78-.36l-.56.51L846,514.5l3.79-2.81,15.64,21a.44.44,0,0,0,.68,0l.84-.85a2.85,2.85,0,0,0,.27-3.66l-1.13-1.55,9.32-8.89,2.85,4.07-11.53,11.68a.62.62,0,0,0-.05.82l1.73,2.29a2.7,2.7,0,0,0,4.06.15l.16-.17,10.83,14.44-3,3.45Z" transform="translate(-840.86 -510.08)"/></svg>